<?xml version="1.0" encoding="UTF-8" standalone="no"?>
<svg
   xmlns:dc="http://purl.org/dc/elements/1.1/"
   xmlns:cc="http://creativecommons.org/ns#"
   xmlns:rdf="http://www.w3.org/1999/02/22-rdf-syntax-ns#"
   xmlns:svg="http://www.w3.org/2000/svg"
   xmlns="http://www.w3.org/2000/svg"
   xmlns:xlink="http://www.w3.org/1999/xlink"
   xmlns:sodipodi="http://sodipodi.sourceforge.net/DTD/sodipodi-0.dtd"
   xmlns:inkscape="http://www.inkscape.org/namespaces/inkscape"
   enable-background="new 0 0 595.275 311.111"
   xml:space="preserve"
   height="1024"
   width="1024"
   version="1.1"
   y="0px"
   x="0px"
   viewBox="0 0 1024 1023.9999"
   id="svg2"
   inkscape:version="0.92.1 r"
   sodipodi:docname="ic_launcher.svg"
   inkscape:export-filename="/home/leonidas/Downloads/android-stable-1.4.3/src/main/res/mipmap-xxxhdpi/ic_launcher.png"
   inkscape:export-xdpi="18"
   inkscape:export-ydpi="18"><metadata
     id="metadata12"><rdf:RDF><cc:Work
         rdf:about=""><dc:format>image/svg+xml</dc:format><dc:type
           rdf:resource="http://purl.org/dc/dcmitype/StillImage" /><dc:title /></cc:Work></rdf:RDF></metadata><defs
     id="defs10"><clipPath
       clipPathUnits="userSpaceOnUse"
       id="clipPath4145"><rect
         ry="128"
         rx="128"
         style="fill:#0082c9"
         id="rect4147"
         x="0"
         y="-1.9073486e-06"
         width="1024"
         height="1024" /></clipPath><linearGradient
       inkscape:collect="always"
       xlink:href="#linearGradient4219"
       id="linearGradient4233"
       gradientUnits="userSpaceOnUse"
       gradientTransform="matrix(0.61026602,0,0,0.61026602,-3112.99,1943.021)"
       x1="5199.0679"
       y1="-3012.3152"
       x2="6492.9248"
       y2="-1718.4584" /><linearGradient
       inkscape:collect="always"
       id="linearGradient4219"><stop
         style="stop-color:#e2076d;stop-opacity:1"
         offset="0"
         id="stop4221" /><stop
         style="stop-color:#286fc9;stop-opacity:1"
         offset="1"
         id="stop4223" /></linearGradient></defs><sodipodi:namedview
     pagecolor="#ffffff"
     bordercolor="#666666"
     borderopacity="1"
     objecttolerance="10"
     gridtolerance="10"
     guidetolerance="10"
     inkscape:pageopacity="0"
     inkscape:pageshadow="2"
     inkscape:window-width="1920"
     inkscape:window-height="1003"
     id="namedview8"
     showgrid="false"
     inkscape:zoom="0.16"
     inkscape:cx="-2954.7471"
     inkscape:cy="217.46068"
     inkscape:current-layer="svg2"
     fit-margin-top="0"
     fit-margin-left="0"
     fit-margin-right="0"
     fit-margin-bottom="0"
     inkscape:window-x="0"
     inkscape:window-y="0"
     inkscape:window-maximized="1" /><g
     id="g906"
     transform="matrix(1.0158475,0,0,1.0158475,-6.9453301,-0.17249605)"><path
       inkscape:connector-curvature="0"
       id="path6"
       d="m 512.68096,296.07009 c -93.35126,0.009 -171.73632,63.92879 -195.6864,149.91791 -20.90398,-45.99328 -66.91627,-78.5879 -120.3776,-78.59385 -72.77312,0.008 -132.607997,59.84889 -132.616957,132.62749 -0.0144,72.79356 59.828907,132.64544 132.616957,132.6544 53.46731,-0.007 99.45003,-32.62151 120.35072,-78.62074 23.94141,86.00403 102.35306,149.93584 195.71626,149.9448 92.84054,0.007 170.84032,-63.22992 195.27724,-148.4992 21.24266,45.14803 66.5489,77.16618 119.39498,77.17216 C 900.15914,632.68596 960.01194,572.82717 960,500.01866 959.993,427.22512 900.14422,367.3792 827.35616,367.39114 774.5071,367.39714 729.17546,399.40935 707.9343,444.5633 683.49738,359.297 605.52448,296.05812 512.68394,296.0641 Z m 0,77.85612 c 70.10602,-0.005 126.10902,55.98698 126.11498,126.09843 0.004,70.12039 -56,126.13127 -126.11498,126.12532 -70.10602,-0.007 -126.09408,-56.01389 -126.0881,-126.12532 0.007,-70.10249 55.99104,-126.08947 126.0881,-126.09843 z m -316.07893,71.32407 c 30.71189,0.004 54.76352,24.05843 54.7665,54.77136 0.005,30.71894 -24.04983,54.79529 -54.7665,54.79827 -30.71787,-0.004 -54.77248,-24.07933 -54.76651,-54.79827 0.004,-30.71293 24.05641,-54.76839 54.76651,-54.77136 z m 630.75413,0 c 30.71786,-0.005 54.7904,24.05155 54.79338,54.77136 0.007,30.7279 -24.06954,54.80425 -54.79338,54.79827 -30.71786,-0.004 -54.77248,-24.07933 -54.7695,-54.79827 0.004,-30.71293 24.05731,-54.76839 54.7695,-54.77136 z"
       style="color:#000000;text-indent:0;text-decoration:none;text-decoration-line:none;text-decoration-style:solid;text-decoration-color:#000000;text-transform:none;white-space:normal;isolation:auto;mix-blend-mode:normal;solid-color:#000000;fill:#ffffff;color-rendering:auto;image-rendering:auto;shape-rendering:auto;enable-background:accumulate" /><path
       inkscape:connector-curvature="0"
       id="rect8336"
       d="m 111.9309,23.737953 h 802.0014 c 43.83516,0 79.12479,35.28968 79.12479,79.124787 v 802.0014 c 0,43.83517 -35.28963,79.12479 -79.12479,79.12479 H 111.9309 c -43.835121,0 -79.124791,-35.28962 -79.124791,-79.12479 v -802.0014 c 0,-43.835107 35.28967,-79.124787 79.124791,-79.124787 z"
       style="font-style:normal;font-weight:normal;font-size:92.12721252px;line-height:125%;font-family:sans-serif;letter-spacing:0px;word-spacing:0px;opacity:1;fill:#ffffff;fill-opacity:1;stroke:#ffffff;stroke-width:25.70646477;stroke-linecap:butt;stroke-linejoin:miter;stroke-miterlimit:4;stroke-dasharray:none;stroke-dashoffset:0;stroke-opacity:1" /><path
       sodipodi:nodetypes="ssccscsccssccsc"
       style="font-style:normal;font-weight:normal;font-size:92.12721252px;line-height:125%;font-family:sans-serif;letter-spacing:0px;word-spacing:0px;opacity:1;fill:url(#linearGradient4233);fill-opacity:1;stroke:none;stroke-width:177.29144287;stroke-linecap:butt;stroke-linejoin:miter;stroke-miterlimit:4;stroke-dasharray:none;stroke-dashoffset:0;stroke-opacity:1"
       d="m 514.96424,173.22502 c -184.26906,0 -332.6184,42.63203 -332.6184,95.5899 v 293.96652 3.15392 176.92642 c 0,30.47055 49.13369,57.29556 125.94018,74.77612 53.51614,10.56163 136.56089,20.81377 206.65953,20.81377 55.11129,0 95.8658,-3.86773 141.53512,-10.63149 69.47861,-80.61538 140.98504,-169.17107 191.1015,-264.06541 V 268.81492 c 0,-52.95787 -148.34886,-95.5899 -332.61793,-95.5899 z m 332.61793,450.90281 c -39.71568,68.87389 -93.42862,134.15284 -143.55418,195.27886 73.45999,-17.88856 143.55418,-47.29302 143.55418,-76.54491 z"
       id="path4231"
       inkscape:connector-curvature="0" /></g><g
     id="g4184"
     style="font-style:normal;font-weight:normal;font-size:92.12721252px;line-height:125%;font-family:sans-serif;letter-spacing:0px;word-spacing:0px;fill:#ffffff;fill-opacity:1;stroke:none;stroke-width:1px;stroke-linecap:butt;stroke-linejoin:miter;stroke-opacity:1"
     transform="matrix(4.7916608,0,0,4.7916608,-1350.5596,-1479.9785)"><path
       id="path4142"
       style="font-style:normal;font-variant:normal;font-weight:bold;font-stretch:normal;font-family:Montserrat;-inkscape-font-specification:'Montserrat Bold';fill:#ffffff"
       d="m 223.3313,551.70154 h 16.85928 v 50.20933 h 27.36179 v 14.37184 H 223.3313 Z"
       inkscape:connector-curvature="0" /><path
       id="path4144"
       style="font-style:normal;font-variant:normal;font-weight:bold;font-stretch:normal;font-family:Montserrat;-inkscape-font-specification:'Montserrat Bold';fill:#ffffff"
       d="m 307.94366,550.68814 q 9.85761,0 17.78055,4.32998 8.01507,4.32998 12.5293,11.88441 4.60636,7.55443 4.60636,16.95141 0,9.4891 -4.60636,17.13566 -4.51423,7.64656 -12.5293,12.06866 -7.92294,4.42211 -17.78055,4.42211 -9.85761,0 -17.87268,-4.32998 -7.92294,-4.42211 -12.5293,-12.06867 -4.51424,-7.73868 -4.51424,-17.22778 0,-9.39698 4.51424,-16.95141 4.60636,-7.55443 12.5293,-11.88441 8.01507,-4.32998 17.87268,-4.32998 z m 0.18425,14.27972 q -4.79061,0 -8.93634,2.48743 -4.05359,2.48744 -6.4489,6.90954 -2.39531,4.32998 -2.39531,9.58123 0,5.34338 2.39531,9.76549 2.48743,4.32998 6.54103,6.90954 4.0536,2.48743 8.84421,2.48743 4.79062,0 8.75209,-2.48743 4.0536,-2.57956 6.35678,-6.90954 2.30318,-4.42211 2.30318,-9.76549 0,-5.25125 -2.30318,-9.58123 -2.30318,-4.4221 -6.35678,-6.90954 -3.96147,-2.48743 -8.75209,-2.48743 z"
       inkscape:connector-curvature="0" /><path
       id="path4146"
       style="font-style:normal;font-variant:normal;font-weight:bold;font-stretch:normal;font-family:Montserrat;-inkscape-font-specification:'Montserrat Bold';fill:#ffffff"
       d="m 360.76397,551.69829 q 9.85761,0 17.78055,4.32998 8.01507,4.32998 12.5293,11.88441 4.60636,7.55443 4.60636,16.95141 0,9.4891 -4.60636,17.13566 -4.51423,7.64656 -12.5293,12.06866 -7.92294,4.42211 -17.78055,4.42211 -9.85761,0 -17.87268,-4.32998 -7.92294,-4.42211 -12.5293,-12.06867 -4.51423,-7.73868 -4.51423,-17.22778 0,-9.39698 4.51423,-16.95141 4.60636,-7.55443 12.5293,-11.88441 8.01507,-4.32998 17.87268,-4.32998 z m 0.18425,14.27972 q -4.79061,0 -8.93634,2.48743 -4.05359,2.48744 -6.4489,6.90954 -2.39531,4.32998 -2.39531,9.58123 0,5.34338 2.39531,9.76549 2.48743,4.32998 6.54103,6.90954 4.0536,2.48743 8.84421,2.48743 4.79062,0 8.75209,-2.48743 4.0536,-2.57956 6.35678,-6.90954 2.30318,-4.42211 2.30318,-9.76549 0,-5.25125 -2.30318,-9.58123 -2.30318,-4.4221 -6.35678,-6.90954 -3.96147,-2.48743 -8.75209,-2.48743 z"
       inkscape:connector-curvature="0" /><path
       id="path4148"
       style="font-style:normal;font-variant:normal;font-weight:bold;font-stretch:normal;font-family:Montserrat;-inkscape-font-specification:'Montserrat Bold';fill:#ffffff"
       d="m 431.01769,551.70154 q 12.34504,0 19.16246,5.98827 6.81741,5.89614 6.81741,16.67502 0,11.42378 -6.81741,17.78056 -6.81742,6.26465 -19.16246,6.26465 h -11.51591 v 17.87267 H 402.6425 v -64.58117 z m -0.82915,33.25792 q 5.15912,0 7.92294,-2.57956 2.85594,-2.57956 2.85594,-7.4623 0,-4.69849 -2.85594,-7.18593 -2.76382,-2.57956 -7.92294,-2.57956 h -10.68676 v 19.80735 z"
       inkscape:connector-curvature="0" /><path
       id="path4150"
       style="font-style:normal;font-variant:normal;font-weight:bold;font-stretch:normal;font-family:Montserrat;-inkscape-font-specification:'Montserrat Bold';fill:#ffffff"
       d="m 465.26023,551.70154 h 16.85928 v 64.58117 h -16.85928 z"
       inkscape:connector-curvature="0" /><path
       id="path4152"
       style="font-style:normal;font-variant:normal;font-weight:bold;font-stretch:normal;font-family:Montserrat;-inkscape-font-specification:'Montserrat Bold';fill:#ffffff"
       d="m 538.71872,551.70154 h 15.66163 v 64.58117 h -14.74036 l -29.29645,-38.6013 v 38.6013 h -15.75376 v -64.58117 h 14.83249 l 29.38858,38.87768 -0.0921,-38.87768 z"
       inkscape:connector-curvature="0" /></g><g
     transform="matrix(4.7916608,0,0,4.7916608,-1302.643,-1536.1405)"
     style="font-style:normal;font-weight:normal;font-size:41.09640884px;line-height:125%;font-family:sans-serif;letter-spacing:0px;word-spacing:0px;fill:#ffffff;fill-opacity:1;stroke:none;stroke-width:1px;stroke-linecap:butt;stroke-linejoin:miter;stroke-opacity:1"
     id="text4192"><path
       inkscape:connector-curvature="0"
       d="m 424.15372,653.76127 q 1.56166,0 2.54797,0.98631 0.98632,0.98632 0.98632,2.54798 0,1.56166 -0.98632,2.58907 -0.98631,0.98632 -2.54797,0.98632 -1.52057,0 -2.50689,-0.98632 -0.98631,-1.02741 -0.98631,-2.58907 0,-1.56166 0.94522,-2.54798 0.98631,-0.98631 2.54798,-0.98631 z"
       style="font-style:normal;font-variant:normal;font-weight:bold;font-stretch:normal;font-family:Montserrat;-inkscape-font-specification:'Montserrat Bold';fill:#ffffff"
       id="path3350" /><path
       inkscape:connector-curvature="0"
       d="m 446.31046,646.40501 q -1.56166,-2.3014 -4.35622,-2.3014 -1.97263,0 -3.20552,1.52057 -1.23289,1.47947 -1.23289,3.86306 0,2.42469 1.23289,3.90416 1.23289,1.47947 3.20552,1.47947 3.04113,0 4.35622,-2.50688 l 5.38363,3.08223 q -1.31509,2.54798 -3.94526,3.94526 -2.63017,1.39727 -6.16446,1.39727 -3.411,0 -6.00007,-1.39727 -2.58908,-1.39728 -4.02745,-3.94526 -1.39728,-2.54798 -1.39728,-5.91788 0,-3.411 1.43837,-6.00008 1.43838,-2.63017 4.02745,-4.02745 2.63017,-1.43837 6.04118,-1.43837 3.3288,0 5.91788,1.39728 2.58907,1.35618 4.02745,3.86306 z"
       style="font-style:normal;font-variant:normal;font-weight:bold;font-stretch:normal;font-family:Montserrat;-inkscape-font-specification:'Montserrat Bold';fill:#ffffff"
       id="path3352" /><path
       inkscape:connector-curvature="0"
       d="m 455.29002,630.04864 h 7.31516 v 30.49354 h -7.31516 z"
       style="font-style:normal;font-variant:normal;font-weight:bold;font-stretch:normal;font-family:Montserrat;-inkscape-font-specification:'Montserrat Bold';fill:#ffffff"
       id="path3354" /><path
       inkscape:connector-curvature="0"
       d="m 478.72397,638.06244 q 3.61648,0 6.36994,1.43837 2.75346,1.39728 4.27403,3.98636 1.52056,2.54797 1.52056,5.91788 0,3.411 -1.52056,6.00007 -1.52057,2.54798 -4.27403,3.98636 -2.75346,1.39727 -6.36994,1.39727 -3.61649,0 -6.36995,-1.39727 -2.75346,-1.43838 -4.27402,-3.98636 -1.47947,-2.58907 -1.47947,-6.00007 0,-3.36991 1.47947,-5.91788 1.52056,-2.58908 4.27402,-3.98636 2.75346,-1.43837 6.36995,-1.43837 z m 0,5.91788 q -2.13702,0 -3.4521,1.52057 -1.31509,1.52057 -1.31509,3.98635 0,2.50688 1.31509,4.02745 1.31508,1.52057 3.4521,1.52057 2.17811,0 3.49319,-1.52057 1.31509,-1.52057 1.31509,-4.02745 0,-2.46578 -1.35619,-3.98635 -1.31508,-1.52057 -3.45209,-1.52057 z"
       style="font-style:normal;font-variant:normal;font-weight:bold;font-stretch:normal;font-family:Montserrat;-inkscape-font-specification:'Montserrat Bold';fill:#ffffff"
       id="path3356" /><path
       inkscape:connector-curvature="0"
       d="m 516.3548,638.30902 v 22.23316 h -7.31517 v -3.61649 q -2.2603,3.86306 -7.10967,3.94526 -3.61649,0 -5.7946,-2.3014 -2.13701,-2.3425 -2.13701,-6.20556 v -14.05497 h 7.31516 v 11.95905 q 0,1.89044 0.94522,2.95894 0.98631,1.06851 2.63017,1.06851 1.93153,-0.0411 3.04113,-1.39728 1.1096,-1.39727 1.1096,-3.61648 v -10.97274 z"
       style="font-style:normal;font-variant:normal;font-weight:bold;font-stretch:normal;font-family:Montserrat;-inkscape-font-specification:'Montserrat Bold';fill:#ffffff"
       id="path3358" /><path
       inkscape:connector-curvature="0"
       d="m 544.38511,630.04864 v 30.49354 h -7.31516 v -2.87675 q -1.1507,1.56166 -2.83565,2.38359 -1.64386,0.78083 -3.73977,0.78083 -3.08224,0 -5.42473,-1.43837 -2.3425,-1.43838 -3.65758,-4.02745 -1.27399,-2.63017 -1.27399,-6.04117 0,-3.36991 1.27399,-5.91789 1.27399,-2.54797 3.57539,-3.94525 2.3014,-1.39728 5.34253,-1.39728 2.13701,0 3.82197,0.82193 1.72604,0.82193 2.91784,2.34249 v -11.17822 z m -12.08234,25.02771 q 2.13701,0 3.4521,-1.52056 1.31508,-1.56167 1.31508,-4.02745 0,-2.50688 -1.31508,-4.02745 -1.31509,-1.52057 -3.4521,-1.52057 -2.13702,0 -3.4932,1.56167 -1.31508,1.52056 -1.31508,3.98635 0,2.46578 1.31508,4.02745 1.35618,1.52056 3.4932,1.52056 z"
       style="font-style:normal;font-variant:normal;font-weight:bold;font-stretch:normal;font-family:Montserrat;-inkscape-font-specification:'Montserrat Bold';fill:#ffffff"
       id="path3360" /></g></svg>