<?xml version="1.0" encoding="UTF-8" standalone="no"?>
<!--
  SVG template from the Android system icon style guide reference square icon
  http://www.google.com/design/spec/style/icons.html#icons-product-icons

  This file contains additional metadata for use with Inkscape, such as layers
  and grids. This means that you can use the file directly with Inkscape, with
  all elements should be visible and controllable in the UI. Additioanl
  elements and attributes will anyways  be generated by Inkscape on the first
  save. -->

<svg
   xmlns:osb="http://www.openswatchbook.org/uri/2009/osb"
   xmlns:dc="http://purl.org/dc/elements/1.1/"
   xmlns:cc="http://creativecommons.org/ns#"
   xmlns:rdf="http://www.w3.org/1999/02/22-rdf-syntax-ns#"
   xmlns:svg="http://www.w3.org/2000/svg"
   xmlns="http://www.w3.org/2000/svg"
   xmlns:xlink="http://www.w3.org/1999/xlink"
   xmlns:sodipodi="http://sodipodi.sourceforge.net/DTD/sodipodi-0.dtd"
   xmlns:inkscape="http://www.inkscape.org/namespaces/inkscape"
   version="1.0"
   width="48"
   height="48"
   viewBox="0 0 48 48"
   id="svg2"
   inkscape:version="0.92.2 5c3e80d, 2017-08-06"
   sodipodi:docname="launcher.svg"
   inkscape:export-filename="C:\DEV\src\Android\nextcloud_android\res\mipmap-xxxhdpi\ic_launcher.png"
   inkscape:export-xdpi="454.73999"
   inkscape:export-ydpi="454.73999">
  <metadata
     id="metadata64">
    <rdf:RDF>
      <cc:Work
         rdf:about="">
        <dc:format>image/svg+xml</dc:format>
        <dc:type
           rdf:resource="http://purl.org/dc/dcmitype/StillImage" />
        <dc:title></dc:title>
      </cc:Work>
    </rdf:RDF>
  </metadata>
  <!--
    We use a 48x48 grid to match the 48x48dp measure in the style guide.
    The visible part of the icon will be smaller. -->
  <defs
     id="defs">
    <linearGradient
       id="linearGradient6098"
       osb:paint="solid">
      <stop
         style="stop-color:#82c9ff;stop-opacity:1;"
         offset="0"
         id="stop6100" />
    </linearGradient>
    <linearGradient
       id="linearGradient5678">
      <!--
        Linear gradient that defines colors stops for the 33% midpoint.
        Edit the stop-color attributes to change the color of the gradient.
        Used for the radial gradient in the finish. -->
      <stop
         offset="0"
         style="stop-color:#ffffff;stop-opacity:1"
         id="stop5680" />
      <stop
         offset="1"
         style="stop-color:#ffffff;stop-opacity:0"
         id="stop5684" />
    </linearGradient>
    <linearGradient
       id="linearGradient5650"
       osb:paint="solid">
      <stop
         style="stop-color:#82c9ff;stop-opacity:1;"
         offset="0"
         id="stop5652" />
    </linearGradient>
    <clipPath
       id="clipSilhouette">
      <!--
        This clip path is used to cut out any shadows and finishes outside
        of the 152x152px (38x38dp) square keyline shape. -->
      <rect
         width="38"
         height="38"
         x="5"
         y="5"
         rx="3"
         ry="3"
         id="clipSilhouetteBounds" />
    </clipPath>
    <linearGradient
       id="linearGradientWhiteMidpoint33">
      <!--
        Linear gradient that defines colors stops for the 33% midpoint.
        Edit the stop-color attributes to change the color of the gradient.
        Used for the radial gradient in the finish. -->
      <stop
         id="stopStart"
         style="stop-color:#ffffff;stop-opacity:1"
         offset="0" />
      <stop
         id="stopMidpoint"
         style="stop-color:#ffffff;stop-opacity:0.5"
         offset="0.33333" />
      <stop
         id="stopEnd"
         style="stop-color:#ffffff;stop-opacity:0"
         offset="1" />
    </linearGradient>
    <radialGradient
       id="radialGradientFinish"
       xlink:href="#linearGradientWhiteMidpoint33"
       cx="0"
       cy="0"
       r="48"
       gradientUnits="userSpaceOnUse">
      <!--
        The gradient used to fill the finishing layer of the icon with a
        45ยบ angle light. The color of the light is defined in
        #linearGradientWhiteMidpoint33 -->
    </radialGradient>
    <filter
       id="filterTint"
       inkscape:label="Tint"
       x="0"
       y="0"
       width="1"
       height="1">
      <!--
        Filter used to produce the lighter edge at the top of material
        elements.

        Edit the flood-color attribute in the feFlood element below to
        change the tint color.-->
      <feFlood
         flood-opacity="0.2"
         flood-color="#ffffff"
         result="floodTintColor"
         id="feFlood13" />
      <feOffset
         in="SourceAlpha"
         dx="0"
         dy="1"
         result="offsetAlpha"
         id="feOffset15">
        <!--
          The style guideline metrics specify the y offset to be 1dp, but
          looking at the example images, they seem to use 0.5dp or lower.
          -->
      </feOffset>
      <feComposite
         in="SourceAlpha"
         in2="offsetAlpha"
         operator="out"
         result="edgeAlpha"
         id="feComposite17" />
      <feComposite
         in="floodTintColor"
         in2="edgeAlpha"
         operator="in"
         result="edgeColor"
         id="feComposite19" />
      <feBlend
         in="edgeColor"
         in2="SourceGraphic"
         mode="normal"
         result="tint"
         id="feBlend21" />
    </filter>
    <filter
       id="filterShade"
       inkscape:label="Shade"
       height="1"
       width="1"
       y="0"
       x="0">
      <!--
        Filter used to produce the darker edge at the bottom of material
        elements.

        Edit the flood-color attribute in the feFlood element below to
        change the shade color. -->
      <feFlood
         flood-color="#212121"
         flood-opacity="0.2"
         result="floodShadeColor"
         id="feFlood24" />
      <feOffset
         in="SourceAlpha"
         dy="-1"
         dx="0"
         result="offsetAlpha"
         id="feOffset26" />
      <feComposite
         in="SourceAlpha"
         in2="offsetAlpha"
         operator="out"
         result="edgeAlpha"
         id="feComposite28" />
      <feComposite
         in="floodShadeColor"
         in2="edgeAlpha"
         operator="in"
         result="edgeColor"
         id="feComposite30" />
      <feBlend
         in="edgeColor"
         in2="SourceGraphic"
         mode="normal"
         result="shade"
         id="feBlend32" />
    </filter>
    <filter
       id="filterShadow"
       inkscape:label="Drop Shadow"
       width="2"
       height="2"
       x="-0.5"
       y="-0.5">
      <!--
        Filter used to produce the blurred shadow below material elements.

        Edit the flood-color attribute in the feFlood element below to
        change the shadow color. To edit the shadow size and offset, change
        the attributes in the feGaussianBlur and feOffset elements. -->
      <feFlood
         flood-opacity="0.2"
         flood-color="#212121"
         result="floodShadowColor"
         id="feFlood35" />
      <feComposite
         in="floodShadowColor"
         in2="SourceAlpha"
         operator="in"
         result="shadow"
         id="feComposite37" />
      <feGaussianBlur
         in="shadow"
         stdDeviation="1.5"
         result="bluredShadow"
         id="feGaussianBlur39" />
      <feOffset
         in="bluredShadow"
         dx="0"
         dy="1.5"
         result="offsetShadow"
         id="feOffset41" />
      <feComposite
         in="SourceGraphic"
         in2="offsetShadow"
         operator="over"
         result="dropShadow"
         id="feComposite43" />
    </filter>
  </defs>
  <sodipodi:namedview
     showgrid="true"
     id="namedview45"
     inkscape:zoom="9.8333331"
     inkscape:cx="51.443068"
     inkscape:cy="9.9706127"
     inkscape:window-width="1920"
     inkscape:window-height="1033"
     inkscape:window-x="0"
     inkscape:window-y="22"
     inkscape:window-maximized="1"
     inkscape:current-layer="g3793"
     inkscape:pagecheckerboard="true"
     inkscape:snap-global="false">
    <!--
      This defines the grids shown in Inkscape.
      These won't affect the result of the render. -->
    <inkscape:grid
       type="xygrid"
       id="gridMain"
       originx="3"
       originy="3"
       empspacing="7"
       dotted="false"
       enabled="true" />
    <inkscape:grid
       type="axonomgrid"
       id="gridDiagonal"
       units="px"
       empspacing="1"
       gridanglex="45"
       gridanglez="45"
       spacingy="48"
       enabled="true" />
  </sodipodi:namedview>
  <!--
    The following groups contain the actual visible parts of the image.
    The groups should be clipped with the silhouette path so that any shadows
    and finishes won't bleed over the edges.

    The order of the elements in this group defines how the elements overlap
    visually, with the first ones being rendered at the bottom. -->
  <g
     id="materialBackground"
     inkscape:groupmode="layer"
     inkscape:label="Material background"
     clip-path="url(#clipSilhouette)">
    <!--
      We need to use nested groups to apply multiple filters on a
      single element. -->
    <g
       style="filter:url(#filterShade);fill-opacity:0.94117647;fill:#0082cf;stroke:none;stroke-opacity:1"
       id="g50">
      <rect
         style="fill:#ffffff;filter:url(#filterTint);fill-opacity:0.94117647;stroke:none;stroke-opacity:1"
         width="38"
         height="38"
         x="5"
         y="5"
         rx="3"
         ry="3"
         id="rect52" />
    </g>
    <g
       transform="translate(-2.2185915,-0.5337521)"
       id="g3793">
      <g
         id="g3857"
         transform="translate(0.71186441,-0.20338984)">
        <path
           sodipodi:nodetypes="cccscssccscssccssscssscssccssscssscccscccccsccccsssccccsccccccccccccscscccssccccccsccccccsccccscssssscccccsccccsccsscsscc"
           inkscape:connector-curvature="0"
           id="path3807"
           d="m 19.340265,40.757903 c -0.097,-0.06575 -6.342467,-9.205637 -6.376157,-9.331141 -0.01581,-0.0589 -0.0049,-0.108115 0.02429,-0.109362 0.02917,-0.0012 1.622737,1.583925 3.541263,3.522604 l 3.488227,3.524872 2.692667,-1.235173 c 4.333253,-1.987737 13.390962,-6.129332 15.085055,-6.89757 0.858288,-0.389217 1.585574,-0.729485 1.616191,-0.756151 0.03062,-0.02667 -0.589002,-0.362908 -1.376932,-0.747204 -0.78793,-0.384297 -2.19901,-1.073873 -3.135732,-1.532393 -0.936723,-0.45852 -1.749113,-0.833121 -1.805311,-0.832447 -0.142608,0.0017 -16.599479,4.144484 -16.645169,4.190174 -0.02044,0.02044 0.761688,0.834649 1.738061,1.809354 l 1.775223,1.772193 0.333958,-0.09928 c 4.51696,-1.342804 14.249829,-4.185439 14.330484,-4.185439 0.238051,0 0.08339,0.120381 -0.456694,0.355464 -0.31134,0.135517 -2.190852,0.926402 -4.176694,1.75752 -5.952289,2.491166 -9.273674,3.884085 -9.786992,4.104459 -0.266779,0.114531 -0.518308,0.208239 -0.558954,0.208239 -0.08215,0 -0.550205,-0.476919 -1.685021,-1.71694 -0.41756,-0.456271 -1.202125,-1.309969 -1.743477,-1.897106 -2.66516,-2.890569 -2.551736,-2.75963 -2.464124,-2.844642 0.04541,-0.04406 0.784802,-0.259825 1.64309,-0.479467 2.115343,-0.541332 8.84486,-2.26038 12.514781,-3.196886 1.649259,-0.420865 3.417769,-0.873746 3.930024,-1.006402 0.512254,-0.132657 1.007949,-0.241045 1.101545,-0.240863 0.09534,1.84e-4 1.704036,0.727883 3.658402,1.654891 1.918525,0.910008 4.018346,1.905159 4.666269,2.211447 0.697498,0.329724 1.178042,0.591574 1.178042,0.641919 0,0.05004 -0.535178,0.345695 -1.300436,0.718422 -0.715239,0.348366 -2.42952,1.190826 -3.809511,1.872134 -3.119666,1.540192 -5.924601,2.922784 -10.954259,5.39951 -2.154134,1.060748 -4.551833,2.24529 -5.32822,2.632314 -1.530524,0.762957 -1.615811,0.79943 -1.713886,0.73295 z M 13.47033,28.060895 c -0.01443,-0.04207 -0.06845,-1.880277 -0.120039,-4.084898 -0.05159,-2.204621 -0.123731,-5.0411 -0.160312,-6.303288 -0.07538,-2.601081 -0.06208,-3.741705 0.04405,-3.77692 0.03861,-0.01281 0.355304,0.191481 0.703765,0.453983 l 0.633565,0.477278 0.04158,0.917954 c 0.02287,0.504875 0.08504,2.322426 0.138163,4.039001 0.150798,4.872778 0.228471,6.85053 0.270813,6.895592 0.02146,0.02284 0.162948,0.0173 0.314411,-0.01232 0.565106,-0.110505 3.305425,-0.674231 4.161394,-0.856063 0.488046,-0.103674 1.148973,-0.24108 1.468727,-0.305347 0.319755,-0.06427 0.994451,-0.20251 1.499326,-0.307207 0.504875,-0.104697 1.840499,-0.379509 2.968054,-0.610693 1.127554,-0.231184 2.463178,-0.506254 2.968053,-0.611266 0.504875,-0.105012 1.714296,-0.354275 2.687602,-0.553919 0.973307,-0.199643 1.817351,-0.378129 1.875655,-0.396633 0.0911,-0.02891 0.110811,-0.147358 0.14018,-0.842334 0.0548,-1.296837 0.161583,-10.826307 0.122028,-10.890309 -0.01978,-0.03201 -0.149756,-0.04213 -0.288825,-0.02248 -0.139068,0.01965 -0.597085,0.06359 -1.017814,0.09765 -1.373422,0.111169 -3.761404,0.313825 -5.813713,0.493382 -0.38707,0.03386 -1.020459,0.08771 -1.40753,0.119651 -1.385885,0.114372 -6.140969,0.519097 -7.160046,0.609421 -0.387071,0.03431 -0.750288,0.06261 -0.807148,0.0629 -0.103486,5.51e-4 -1.526096,-1.026245 -1.610014,-1.162028 -0.1044,-0.168921 -0.211873,-0.15586 3.549306,-0.431322 0.471216,-0.03451 1.21476,-0.0896 1.652318,-0.122423 0.437558,-0.03282 1.552873,-0.114084 2.478478,-0.180583 0.925604,-0.0665 2.068457,-0.149028 2.539674,-0.183399 0.471217,-0.03437 1.242299,-0.0904 1.713516,-0.124513 3.470943,-0.251257 4.267678,-0.308817 5.079349,-0.366952 0.504875,-0.03616 1.245449,-0.093916 1.64572,-0.1283457 0.597626,-0.051405 0.742782,-0.047583 0.811733,0.021368 0.07084,0.070836 0.07511,1.1587987 0.02732,6.9570837 -0.03581,4.344711 -0.07878,6.895255 -0.116823,6.933295 -0.0331,0.0331 -0.31781,0.111417 -0.632693,0.174043 -0.314884,0.06263 -1.109519,0.224183 -1.765857,0.359014 -1.63233,0.33533 -5.681735,1.163806 -7.649622,1.565053 -0.891946,0.181866 -2.778343,0.566945 -4.191993,0.855731 -1.41365,0.288786 -3.05165,0.622489 -3.64,0.741564 -0.58835,0.119074 -1.455635,0.297334 -1.927299,0.396135 -0.943366,0.197608 -1.185648,0.218006 -1.225045,0.10314 z M 11.581958,27.78643 c -0.04274,-0.153064 -0.08725,-0.748333 -0.225402,-3.014839 -0.06668,-1.093896 -0.148591,-2.436405 -0.182031,-2.983353 -0.03344,-0.546947 -0.08795,-1.441953 -0.121138,-1.988901 -0.03319,-0.546948 -0.116818,-1.903226 -0.18585,-3.013951 -0.06903,-1.110725 -0.151391,-2.446349 -0.183022,-2.968053 -0.03163,-0.521704 -0.07559,-1.213162 -0.09769,-1.536574 -0.02882,-0.421806 -0.0199,-0.600555 0.03157,-0.632365 0.07655,-0.04731 1.2188,0.570213 1.352324,0.731099 0.08158,0.0983 0.08471,-0.145268 -0.123469,9.607636 -0.10271,4.811788 -0.135411,5.845648 -0.185884,5.876842 -0.02709,0.01674 -0.06283,-0.01815 -0.07941,-0.07754 z m 12.731223,-3.886896 c -0.148847,-0.138191 -1.485375,-1.525086 -5.853224,-6.0738 -1.292801,-1.346333 -2.712271,-2.81965 -3.154379,-3.274038 C 14.86347,14.097309 13.746605,12.940686 12.823656,11.981424 11.900707,11.022161 10.752861,9.8298106 10.272888,9.3317559 9.3977429,8.4236421 9.1820636,8.1076093 9.6096182,8.3598726 9.7247928,8.4278273 10.778146,9.1933795 11.950403,10.0611 c 2.665132,1.972767 8.151461,6.032682 10.315577,7.633587 1.039645,0.769077 1.664339,1.193703 1.713515,1.164734 0.0767,-0.04518 0.222248,-0.159198 2.073091,-1.623955 0.525444,-0.415835 1.323347,-1.045221 1.773119,-1.398633 2.122823,-1.66803 2.622654,-2.075705 2.578433,-2.103035 -0.02624,-0.01622 -0.48749,0.0087 -1.024992,0.05535 -0.537501,0.04666 -1.321508,0.112637 -1.742237,0.146606 -2.346614,0.189462 -6.053182,0.499746 -6.609274,0.553275 -0.353412,0.03402 -0.963855,0.07987 -1.35654,0.101893 l -0.713972,0.04004 -0.311078,-0.619894 c -0.171092,-0.340941 -0.311077,-0.660454 -0.311077,-0.710028 0,-0.115552 0.16237,-0.140709 1.407531,-0.218068 0.555362,-0.0345 1.40906,-0.08982 1.897106,-0.122922 2.920335,-0.198082 4.603273,-0.311957 5.385334,-0.364396 5.927599,-0.397459 5.642915,-0.38288 5.732239,-0.293556 0.114601,0.114601 0.02578,0.244608 -4.693552,6.869967 -0.35963,0.504875 -1.181478,1.661498 -1.826332,2.570273 -1.397367,1.969275 -1.641084,2.294886 -1.717698,2.294886 -0.03196,0 -0.124844,-0.06196 -0.206415,-0.137693 z"
           style="fill:#a0def0;stroke-width:0.06119698" />
        <path
           sodipodi:nodetypes="cccscssccscssccssscssscssccssscssscccscsccsccssccsccssccscscssccscssscccccscccscscccssssccccssscsccsccsssssccccccc"
           inkscape:connector-curvature="0"
           id="path3805"
           d="m 19.340265,40.757903 c -0.097,-0.06575 -6.342467,-9.205637 -6.376157,-9.331141 -0.01581,-0.0589 -0.0049,-0.108115 0.02429,-0.109362 0.02917,-0.0012 1.622737,1.583925 3.541263,3.522604 l 3.488227,3.524872 2.692667,-1.235173 c 4.333253,-1.987737 13.390962,-6.129332 15.085055,-6.89757 0.858288,-0.389217 1.585574,-0.729485 1.616191,-0.756151 0.03062,-0.02667 -0.589002,-0.362908 -1.376932,-0.747204 -0.78793,-0.384297 -2.19901,-1.073873 -3.135732,-1.532393 -0.936723,-0.45852 -1.749113,-0.833121 -1.805311,-0.832447 -0.142608,0.0017 -16.599479,4.144484 -16.645169,4.190174 -0.02044,0.02044 0.761688,0.834649 1.738061,1.809354 l 1.775223,1.772193 0.333958,-0.09928 c 4.51696,-1.342804 14.249829,-4.185439 14.330484,-4.185439 0.238051,0 0.08339,0.120381 -0.456694,0.355464 -0.31134,0.135517 -2.190852,0.926402 -4.176694,1.75752 -5.952289,2.491166 -9.273674,3.884085 -9.786992,4.104459 -0.266779,0.114531 -0.518308,0.208239 -0.558954,0.208239 -0.08215,0 -0.550205,-0.476919 -1.685021,-1.71694 -0.41756,-0.456271 -1.202125,-1.309969 -1.743477,-1.897106 -2.66516,-2.890569 -2.551736,-2.75963 -2.464124,-2.844642 0.04541,-0.04406 0.784802,-0.259825 1.64309,-0.479467 2.115343,-0.541332 8.84486,-2.26038 12.514781,-3.196886 1.649259,-0.420865 3.417769,-0.873746 3.930024,-1.006402 0.512254,-0.132657 1.007949,-0.241045 1.101545,-0.240863 0.09534,1.84e-4 1.704036,0.727883 3.658402,1.654891 1.918525,0.910008 4.018346,1.905159 4.666269,2.211447 0.697498,0.329724 1.178042,0.591574 1.178042,0.641919 0,0.05004 -0.535178,0.345695 -1.300436,0.718422 -0.715239,0.348366 -2.42952,1.190826 -3.809511,1.872134 -3.119666,1.540192 -5.924601,2.922784 -10.954259,5.39951 -2.154134,1.060748 -4.551833,2.24529 -5.32822,2.632314 -1.530524,0.762957 -1.615811,0.79943 -1.713886,0.73295 z M 13.542282,28.03033 c -0.0146,-0.02524 -0.04504,-0.858288 -0.06765,-1.851209 -0.02261,-0.992921 -0.07988,-3.347474 -0.127276,-5.232341 -0.178728,-7.10825 -0.176575,-6.945856 -0.09208,-6.945856 0.07782,0 0.924176,0.586114 1.149547,0.796079 0.10589,0.09865 0.121704,0.238459 0.160184,1.416102 0.02348,0.718654 0.108349,3.368766 0.188592,5.889136 0.09031,2.836572 0.169703,4.606296 0.208377,4.644971 0.04251,0.04251 0.215025,0.03139 0.539695,-0.03476 0.262469,-0.05348 1.344684,-0.276102 2.404922,-0.494711 3.443205,-0.709949 8.183029,-1.68646 10.31169,-2.124441 1.90345,-0.391643 3.062866,-0.63154 4.326547,-0.895215 0.259125,-0.05407 0.506973,-0.120446 0.550773,-0.147508 0.06359,-0.03929 0.09545,-1.229561 0.1581,-5.906031 0.04447,-3.31919 0.05541,-5.879887 0.02525,-5.910047 -0.04657,-0.04656 -1.247453,0.04438 -6.223409,0.471295 -0.572192,0.04909 -2.017971,0.172422 -3.212842,0.274067 -1.194871,0.101645 -3.299139,0.280831 -4.676151,0.398191 l -2.503658,0.213383 -0.722234,-0.534494 c -0.706384,-0.522762 -0.851171,-0.687485 -0.604281,-0.687485 0.06735,0 1.437395,-0.09626 3.04455,-0.213916 1.607155,-0.117654 4.064953,-0.296114 5.461774,-0.396578 1.396821,-0.100463 2.897677,-0.210474 3.335235,-0.244468 0.437559,-0.03399 1.965953,-0.145026 3.396433,-0.246738 1.430479,-0.101712 2.890027,-0.209008 3.243439,-0.238435 0.353413,-0.029427 0.667505,-0.038588 0.697983,-0.02036 0.07037,0.04209 0.0055,13.716423 -0.06539,13.787334 -0.05082,0.05082 -0.385511,0.125059 -2.72859,0.605219 -0.664752,0.136226 -1.738759,0.356618 -2.386682,0.48976 -0.647923,0.133143 -3.215901,0.657504 -5.706618,1.165246 -2.490717,0.507743 -5.051811,1.030851 -5.691319,1.162463 -2.682517,0.552067 -4.208244,0.857244 -4.285764,0.857244 -0.04543,0 -0.09454,-0.02065 -0.109142,-0.0459 z m -1.973205,-0.283343 c -0.0208,-0.08286 -0.0248,-0.201025 -0.0089,-0.26259 0.0233,-0.09018 0.0303,-0.08518 0.03602,0.02576 0.0039,0.07573 0.03464,0.137694 0.0683,0.137694 0.0785,0 0.07989,0.164815 0.0018,0.21308 -0.03267,0.02019 -0.07642,-0.03108 -0.09722,-0.113942 z m -0.02697,-1.126522 c 0,-0.09385 -0.04064,-0.802968 -0.0903,-1.575822 -0.04967,-0.772855 -0.173552,-2.768353 -0.275302,-4.43444 -0.272286,-4.458482 -0.36399,-5.93704 -0.461097,-7.434377 -0.05352,-0.825298 -0.06534,-1.367185 -0.03057,-1.401954 0.03477,-0.03477 0.252793,0.05604 0.564067,0.234932 0.819114,0.470757 0.739377,0.07721 0.665165,3.282918 -0.03538,1.528344 -0.09181,4.265893 -0.125401,6.083443 -0.07608,4.116573 -0.122127,5.415932 -0.191942,5.415932 -0.03004,0 -0.05462,-0.07678 -0.05462,-0.170632 z M 17.147235,16.356453 C 13.144977,12.199712 9.8289323,8.739534 9.7782459,8.6671692 L 9.6860889,8.5355966 9.884022,8.6520896 c 0.1088633,0.064071 0.699218,0.4882645 1.311899,0.942652 2.781756,2.0630564 5.005708,3.7098124 6.955456,5.1502674 1.161213,0.857892 2.918136,2.156744 3.904273,2.886337 0.986138,0.729593 1.826066,1.325875 1.866508,1.32507 0.04044,-8.01e-4 0.44893,-0.296844 0.907751,-0.657867 3.136996,-2.468342 5.68457,-4.495028 5.717701,-4.548635 0.02145,-0.03472 0.02417,-0.07796 0.006,-0.0961 -0.01814,-0.01814 -2.547566,0.176546 -5.620951,0.432633 -3.073384,0.256088 -5.661582,0.465531 -5.751553,0.46543 -0.144512,-1.83e-4 -0.19994,-0.06925 -0.475463,-0.592607 -0.206875,-0.392963 -0.29138,-0.612925 -0.25099,-0.653315 0.03349,-0.03349 1.610611,-0.165685 3.504714,-0.293768 1.894102,-0.128082 4.87777,-0.329786 6.630372,-0.44823 3.593722,-0.242871 4.065294,-0.257873 4.065294,-0.129328 0,0.132069 -0.837308,1.338879 -4.589773,6.615226 -1.924826,2.7065 -3.498324,4.862339 -3.549425,4.863042 -0.05049,6.98e-4 -3.36637,-3.399705 -7.368628,-7.556446 z M 9.4265402,8.4123455 C 9.3769342,8.2830743 9.407998,8.2387749 9.5058464,8.2992486 c 0.045445,0.028087 0.051573,0.076417 0.016819,0.1326506 -0.045945,0.07434 -0.061293,0.071217 -0.096125,-0.019554 z"
           style="fill:#cececf;stroke-width:0.06119698" />
        <path
           sodipodi:nodetypes="ccccssscscccscscccssscssssscccscsccsccssccsccssccscscssccscsssccscscccssssccccssscsccsccsssssccc"
           inkscape:connector-curvature="0"
           id="path3803"
           d="m 16.344906,36.300227 c -1.648621,-2.410418 -3.035283,-4.453028 -3.081473,-4.539134 l -0.08398,-0.156556 0.154095,0.117652 c 0.08475,0.06471 1.607662,1.597854 3.384246,3.40699 1.776584,1.809135 3.257,3.289337 3.289813,3.289337 0.03281,0 1.177635,-0.51098 2.544047,-1.13551 13.32155,-6.08873 16.988038,-7.77881 16.987848,-7.830605 -2.45e-4,-0.07334 0.215028,0.0368 -3.365612,-1.721818 -1.6156,-0.793497 -2.992532,-1.442748 -3.059849,-1.442781 -0.143478,-6.1e-5 -16.456091,4.088642 -16.663884,4.176757 -0.09733,0.04127 -0.125626,0.0865 -0.0918,0.146719 0.0269,0.04788 0.854213,0.876301 1.838478,1.840933 l 1.789572,1.753878 6.8698,-2.020397 c 7.409336,-2.179074 7.267604,-2.138786 7.175785,-2.039779 -0.121264,0.130759 -14.369511,6.065062 -14.451727,6.019051 -0.15394,-0.08615 -5.77255,-6.222143 -5.75361,-6.283426 0.0104,-0.03366 0.512679,-0.188304 1.116169,-0.343656 6.071453,-1.562934 17.948383,-4.5827 18.024044,-4.5827 0.08403,0 2.080957,0.935715 7.852973,3.679734 0.805041,0.382717 1.472999,0.723825 1.48435,0.758017 0.01135,0.03419 -1.487248,0.804095 -3.33022,1.710894 -1.842972,0.9068 -5.178614,2.551796 -7.41254,3.655549 -2.233925,1.103752 -4.068112,2.006822 -4.07597,2.006822 -0.0079,0 -1.79685,0.881236 -3.975535,1.958303 -2.178685,1.077067 -4.00766,1.958303 -4.064388,1.958303 -0.06786,0 -1.128473,-1.499117 -3.100633,-4.382577 z M 13.542282,28.03033 c -0.0146,-0.02524 -0.04504,-0.858288 -0.06765,-1.851209 -0.02261,-0.992921 -0.07988,-3.347474 -0.127276,-5.232341 -0.178728,-7.10825 -0.176575,-6.945856 -0.09208,-6.945856 0.07782,0 0.924176,0.586114 1.149547,0.796079 0.10589,0.09865 0.121704,0.238459 0.160184,1.416102 0.02348,0.718654 0.108349,3.368766 0.188592,5.889136 0.09031,2.836572 0.169703,4.606296 0.208377,4.644971 0.04251,0.04251 0.215025,0.03139 0.539695,-0.03476 0.262469,-0.05348 1.344684,-0.276102 2.404922,-0.494711 3.443205,-0.709949 8.183029,-1.68646 10.31169,-2.124441 1.90345,-0.391643 3.062866,-0.63154 4.326547,-0.895215 0.259125,-0.05407 0.506973,-0.120446 0.550773,-0.147508 0.06359,-0.03929 0.09545,-1.229561 0.1581,-5.906031 0.04447,-3.31919 0.05541,-5.879887 0.02525,-5.910047 -0.04657,-0.04656 -1.247453,0.04438 -6.223409,0.471295 -0.572192,0.04909 -2.017971,0.172422 -3.212842,0.274067 -1.194871,0.101645 -3.299139,0.280831 -4.676151,0.398191 l -2.503658,0.213383 -0.722234,-0.534494 c -0.706384,-0.522762 -0.851171,-0.687485 -0.604281,-0.687485 0.06735,0 1.437395,-0.09626 3.04455,-0.213916 1.607155,-0.117654 4.064953,-0.296114 5.461774,-0.396578 1.396821,-0.100463 2.897677,-0.210474 3.335235,-0.244468 0.437559,-0.03399 1.965953,-0.145026 3.396433,-0.246738 1.430479,-0.101712 2.890027,-0.209008 3.243439,-0.238435 0.353413,-0.029427 0.667505,-0.038588 0.697983,-0.02036 0.07037,0.04209 0.0055,13.716423 -0.06539,13.787334 -0.05082,0.05082 -0.385511,0.125059 -2.72859,0.605219 -0.664752,0.136226 -1.738759,0.356618 -2.386682,0.48976 -0.647923,0.133143 -3.215901,0.657504 -5.706618,1.165246 -2.490717,0.507743 -5.051811,1.030851 -5.691319,1.162463 -2.682517,0.552067 -4.208244,0.857244 -4.285764,0.857244 -0.04543,0 -0.09454,-0.02065 -0.109142,-0.0459 z m -2.000178,-1.409871 c 0,-0.09385 -0.04064,-0.802968 -0.0903,-1.575822 -0.04967,-0.772855 -0.173552,-2.768353 -0.275302,-4.43444 -0.272286,-4.458482 -0.36399,-5.93704 -0.461097,-7.434377 -0.05352,-0.825298 -0.06534,-1.367185 -0.03057,-1.401954 0.03477,-0.03477 0.252793,0.05604 0.564067,0.234932 0.819114,0.470757 0.739377,0.07721 0.665165,3.282918 -0.03538,1.528344 -0.09181,4.265893 -0.125401,6.083443 -0.07608,4.116573 -0.122127,5.415932 -0.191942,5.415932 -0.03004,0 -0.05462,-0.07678 -0.05462,-0.170632 z M 17.147235,16.356453 C 13.144977,12.199712 9.8289323,8.739534 9.7782459,8.6671692 L 9.6860889,8.5355966 9.884022,8.6520896 c 0.1088633,0.064071 0.699218,0.4882645 1.311899,0.942652 2.781756,2.0630564 5.005708,3.7098124 6.955456,5.1502674 1.161213,0.857892 2.918136,2.156744 3.904273,2.886337 0.986138,0.729593 1.826066,1.325875 1.866508,1.32507 0.04044,-8.01e-4 0.44893,-0.296844 0.907751,-0.657867 3.136996,-2.468342 5.68457,-4.495028 5.717701,-4.548635 0.02145,-0.03472 0.02417,-0.07796 0.006,-0.0961 -0.01814,-0.01814 -2.547566,0.176546 -5.620951,0.432633 -3.073384,0.256088 -5.661582,0.465531 -5.751553,0.46543 -0.144512,-1.83e-4 -0.19994,-0.06925 -0.475463,-0.592607 -0.206875,-0.392963 -0.29138,-0.612925 -0.25099,-0.653315 0.03349,-0.03349 1.610611,-0.165685 3.504714,-0.293768 1.894102,-0.128082 4.87777,-0.329786 6.630372,-0.44823 3.593722,-0.242871 4.065294,-0.257873 4.065294,-0.129328 0,0.132069 -0.837308,1.338879 -4.589773,6.615226 -1.924826,2.7065 -3.498324,4.862339 -3.549425,4.863042 -0.05049,6.98e-4 -3.36637,-3.399705 -7.368628,-7.556446 z"
           style="fill:#5fc7e9;stroke-width:0.06119698" />
        <path
           sodipodi:nodetypes="ccccssscscccscscccssscsssssccccssscsccsssssccsccccscccscscccscscscsscsscccsccssccccccsscssscsssscsscssscccsss"
           inkscape:connector-curvature="0"
           id="path3801"
           d="m 16.344906,36.300227 c -1.648621,-2.410418 -3.035283,-4.453028 -3.081473,-4.539134 l -0.08398,-0.156556 0.154095,0.117652 c 0.08475,0.06471 1.607662,1.597854 3.384246,3.40699 1.776584,1.809135 3.257,3.289337 3.289813,3.289337 0.03281,0 1.177635,-0.51098 2.544047,-1.13551 13.32155,-6.08873 16.988038,-7.77881 16.987848,-7.830605 -2.45e-4,-0.07334 0.215028,0.0368 -3.365612,-1.721818 -1.6156,-0.793497 -2.992532,-1.442748 -3.059849,-1.442781 -0.143478,-6.1e-5 -16.456091,4.088642 -16.663884,4.176757 -0.09733,0.04127 -0.125626,0.0865 -0.0918,0.146719 0.0269,0.04788 0.854213,0.876301 1.838478,1.840933 l 1.789572,1.753878 6.8698,-2.020397 c 7.409336,-2.179074 7.267604,-2.138786 7.175785,-2.039779 -0.121264,0.130759 -14.369511,6.065062 -14.451727,6.019051 -0.15394,-0.08615 -5.77255,-6.222143 -5.75361,-6.283426 0.0104,-0.03366 0.512679,-0.188304 1.116169,-0.343656 6.071453,-1.562934 17.948383,-4.5827 18.024044,-4.5827 0.08403,0 2.080957,0.935715 7.852973,3.679734 0.805041,0.382717 1.472999,0.723825 1.48435,0.758017 0.01135,0.03419 -1.487248,0.804095 -3.33022,1.710894 -1.842972,0.9068 -5.178614,2.551796 -7.41254,3.655549 -2.233925,1.103752 -4.068112,2.006822 -4.07597,2.006822 -0.0079,0 -1.79685,0.881236 -3.975535,1.958303 -2.178685,1.077067 -4.00766,1.958303 -4.064388,1.958303 -0.06786,0 -1.128473,-1.499117 -3.100633,-4.382577 z m -2.748596,-8.42289 c -0.01585,-0.07573 -0.0584,-1.514625 -0.09454,-3.197542 -0.03615,-1.682916 -0.105831,-4.615781 -0.154858,-6.517477 -0.108672,-4.215331 -0.107719,-4.039 -0.02183,-4.039 0.0382,0 0.307946,0.177568 0.599427,0.394595 l 0.529966,0.394595 0.07389,2.343969 c 0.04064,1.289184 0.116344,3.775979 0.168227,5.526212 0.05188,1.750234 0.109242,3.381898 0.127462,3.625921 0.03275,0.438653 0.03509,0.443678 0.206626,0.443678 0.09542,0 0.774657,-0.125099 1.509405,-0.277999 0.734747,-0.1529 1.859138,-0.385371 2.498647,-0.516603 0.639508,-0.131232 2.043979,-0.420513 3.121045,-0.642845 2.97467,-0.614043 5.864675,-1.209153 8.167742,-1.6819 2.663399,-0.546712 2.822095,-0.584322 2.885103,-0.683757 0.02889,-0.0456 0.05281,-0.468445 0.05316,-0.939661 3.68e-4,-0.471217 0.03122,-3.110631 0.06862,-5.865364 0.04757,-3.503771 0.04865,-5.027947 0.0036,-5.072979 -0.06288,-0.06288 -0.477858,-0.03597 -3.528623,0.228839 -0.538533,0.04675 -1.488616,0.128019 -2.111295,0.180607 -0.62268,0.05259 -1.765533,0.150531 -2.539675,0.21765 -0.774142,0.06712 -1.737994,0.148924 -2.141894,0.181788 -2.533553,0.206146 -5.16732,0.432895 -5.324137,0.45837 -0.100975,0.0164 -0.379048,0.0342 -0.61794,0.03956 l -0.434348,0.0097 -0.659862,-0.496801 c -0.40044,-0.301486 -0.626657,-0.508688 -0.575401,-0.527036 0.04645,-0.01663 1.062083,-0.100714 2.256954,-0.186854 1.194871,-0.08614 2.709496,-0.19624 3.365833,-0.244666 0.656338,-0.04843 1.592652,-0.115913 2.080698,-0.14997 0.488045,-0.03406 1.438128,-0.10299 2.111295,-0.153182 0.673167,-0.05019 2.380563,-0.174999 3.794213,-0.277348 1.41365,-0.102348 3.117516,-0.226916 3.786369,-0.276817 0.668853,-0.0499 1.327224,-0.09073 1.463049,-0.09073 h 0.246953 l -0.04387,6.808164 c -0.02413,3.744489 -0.06428,6.828844 -0.08924,6.85412 -0.04397,0.04454 -0.950417,0.234485 -7.229773,1.514979 -1.632429,0.332887 -4.05583,0.828164 -5.385334,1.100616 -1.329504,0.272452 -2.678898,0.548016 -2.998652,0.612364 -0.319754,0.06435 -1.595833,0.324778 -2.835732,0.578733 -1.239898,0.253956 -2.265188,0.461737 -2.278421,0.461737 -0.01323,0 -0.03703,-0.06196 -0.05288,-0.137693 z m -2.075388,-2.833808 c -0.02217,-0.334687 -0.06732,-1.04914 -0.10033,-1.587673 -0.03301,-0.538533 -0.115946,-1.887927 -0.184302,-2.998652 -0.06836,-1.110725 -0.151742,-2.473887 -0.185304,-3.02925 -0.03356,-0.555362 -0.102303,-1.670677 -0.152759,-2.478477 -0.157763,-2.525784 -0.176882,-3.090447 -0.104641,-3.090447 0.03631,0 0.302153,0.141126 0.590762,0.313613 l 0.524744,0.313614 -0.03207,1.139814 c -0.04081,1.450369 -0.137909,6.238424 -0.190031,9.370808 -0.04122,2.477474 -0.09424,3.130876 -0.166066,2.04665 z m 10.786559,-3.438881 c -2.654568,-2.755019 -3.366389,-3.493461 -5.471839,-5.676474 -4.230798,-4.386661 -6.208531,-6.4472642 -6.429824,-6.6992448 -0.326442,-0.37171 -0.323236,-0.3695075 2.368416,1.6274958 1.257683,0.933106 2.741084,2.031323 3.296446,2.440483 0.555363,0.40916 1.753294,1.293746 2.662069,1.965747 0.908775,0.672001 2.023768,1.496065 2.477762,1.831253 0.453995,0.335188 1.223662,0.905473 1.71037,1.2673 0.486709,0.361827 0.936241,0.657867 0.998961,0.657867 0.06272,0 0.477216,-0.287839 0.921101,-0.639643 0.443885,-0.351804 1.935867,-1.529577 3.315515,-2.617274 1.379648,-1.087697 2.517635,-2.025327 2.528862,-2.083622 0.01667,-0.08657 -0.02543,-0.105991 -0.229762,-0.105991 -0.221292,0 -3.403216,0.255902 -5.327725,0.428477 -2.503189,0.224465 -5.965596,0.491256 -6.03414,0.464953 -0.07842,-0.03009 -0.575134,-0.953901 -0.575134,-1.069654 0,-0.07354 0.330909,-0.106441 2.539675,-0.252544 2.317214,-0.153275 3.040887,-0.201907 6.395084,-0.429755 4.32133,-0.293545 4.48644,-0.302411 4.712167,-0.25302 0.182253,0.03988 0.211182,0.06921 0.194015,0.196723 -0.025,0.185682 -0.361346,0.731598 -1.016095,1.649184 -0.51836,0.726444 -3.995193,5.613944 -5.071693,7.129447 -1.474441,2.075726 -1.722984,2.41728 -1.759011,2.41728 -0.02103,0 -1.013377,-1.012045 -2.20522,-2.248988 z"
           style="fill:#9b9c9e;stroke-width:0.06119698" />
        <path
           sodipodi:nodetypes="csscsssscsscsssccsccsccscsssccccssscsccsssssccsccccscccscscccscscscsscsscccsccssccccccsscssscsssscsscssscccsss"
           inkscape:connector-curvature="0"
           id="path3799"
           d="m 18.929434,39.963739 c -2.4229,-3.515458 -5.375009,-7.861731 -5.354105,-7.882635 0.01433,-0.01433 1.428463,1.402804 3.142512,3.149193 1.714049,1.746389 3.166768,3.194468 3.228263,3.217955 0.07747,0.02959 1.458729,-0.573497 4.497977,-1.963914 2.412393,-1.103637 6.809569,-3.114461 9.771503,-4.468496 4.059061,-1.855583 5.385334,-2.487476 5.385334,-2.565808 0,-0.07645 -0.854049,-0.522675 -3.230785,-1.688017 l -3.230785,-1.584093 -2.521731,0.639285 c -1.386952,0.351606 -5.164748,1.304159 -8.3951,2.116785 -3.230354,0.812626 -5.894717,1.490695 -5.920808,1.50682 -0.02609,0.01613 -0.04744,0.06273 -0.04744,0.103566 0,0.09417 3.621615,3.712742 3.715861,3.712742 0.03846,0 3.021778,-0.868656 6.629593,-1.930346 3.607815,-1.06169 6.586547,-1.921384 6.619403,-1.910433 0.05509,0.01836 -13.34036,5.651691 -13.53062,5.690176 -0.07805,0.01579 -1.084942,-1.047665 -4.443987,-4.693637 -0.706825,-0.767202 -1.293746,-1.430968 -1.30427,-1.475036 -0.01156,-0.04839 0.07328,-0.10415 0.21419,-0.140787 0.394262,-0.102507 9.442873,-2.410507 13.360074,-3.40771 2.036329,-0.51839 4.102675,-1.044524 4.591878,-1.169189 l 0.889462,-0.226662 4.583303,2.170839 c 2.520817,1.193962 4.591568,2.197386 4.60167,2.229831 0.0101,0.03244 -2.218564,1.159911 -4.95259,2.50548 -5.01203,2.466703 -15.525098,7.650488 -16.926828,8.346284 -0.416253,0.206621 -0.793216,0.375675 -0.837695,0.375675 -0.04448,0 -0.284905,-0.29604 -0.534281,-0.657868 z M 13.59631,27.877337 c -0.01585,-0.07573 -0.0584,-1.514625 -0.09454,-3.197542 -0.03615,-1.682916 -0.105831,-4.615781 -0.154858,-6.517477 -0.108672,-4.215331 -0.107719,-4.039 -0.02183,-4.039 0.0382,0 0.307946,0.177568 0.599427,0.394595 l 0.529966,0.394595 0.07389,2.343969 c 0.04064,1.289184 0.116344,3.775979 0.168227,5.526212 0.05188,1.750234 0.109242,3.381898 0.127462,3.625921 0.03275,0.438653 0.03509,0.443678 0.206626,0.443678 0.09542,0 0.774657,-0.125099 1.509405,-0.277999 0.734747,-0.1529 1.859138,-0.385371 2.498647,-0.516603 0.639508,-0.131232 2.043979,-0.420513 3.121045,-0.642845 2.97467,-0.614043 5.864675,-1.209153 8.167742,-1.6819 2.663399,-0.546712 2.822095,-0.584322 2.885103,-0.683757 0.02889,-0.0456 0.05281,-0.468445 0.05316,-0.939661 3.68e-4,-0.471217 0.03122,-3.110631 0.06862,-5.865364 0.04757,-3.503771 0.04865,-5.027947 0.0036,-5.072979 -0.06288,-0.06288 -0.477858,-0.03597 -3.528623,0.228839 -0.538533,0.04675 -1.488616,0.128019 -2.111295,0.180607 -0.62268,0.05259 -1.765533,0.150531 -2.539675,0.21765 -0.774142,0.06712 -1.737994,0.148924 -2.141894,0.181788 -2.533553,0.206146 -5.16732,0.432895 -5.324137,0.45837 -0.100975,0.0164 -0.379048,0.0342 -0.61794,0.03956 l -0.434348,0.0097 -0.659862,-0.496801 c -0.40044,-0.301486 -0.626657,-0.508688 -0.575401,-0.527036 0.04645,-0.01663 1.062083,-0.100714 2.256954,-0.186854 1.194871,-0.08614 2.709496,-0.19624 3.365833,-0.244666 0.656338,-0.04843 1.592652,-0.115913 2.080698,-0.14997 0.488045,-0.03406 1.438128,-0.10299 2.111295,-0.153182 0.673167,-0.05019 2.380563,-0.174999 3.794213,-0.277348 1.41365,-0.102348 3.117516,-0.226916 3.786369,-0.276817 0.668853,-0.0499 1.327224,-0.09073 1.463049,-0.09073 h 0.246953 l -0.04387,6.808164 c -0.02413,3.744489 -0.06428,6.828844 -0.08924,6.85412 -0.04397,0.04454 -0.950417,0.234485 -7.229773,1.514979 -1.632429,0.332887 -4.05583,0.828164 -5.385334,1.100616 -1.329504,0.272452 -2.678898,0.548016 -2.998652,0.612364 -0.319754,0.06435 -1.595833,0.324778 -2.835732,0.578733 -1.239898,0.253956 -2.265188,0.461737 -2.278421,0.461737 -0.01323,0 -0.03703,-0.06196 -0.05288,-0.137693 z m -2.075388,-2.833822 c -0.02217,-0.334687 -0.06732,-1.04914 -0.10033,-1.587673 -0.03301,-0.538533 -0.115946,-1.887927 -0.184302,-2.998652 -0.06836,-1.110725 -0.151742,-2.473887 -0.185304,-3.02925 -0.03356,-0.555362 -0.102303,-1.670677 -0.152759,-2.478477 -0.157763,-2.525784 -0.176882,-3.090447 -0.104641,-3.090447 0.03631,0 0.302153,0.141126 0.590762,0.313613 l 0.524744,0.313614 -0.03207,1.139814 c -0.04081,1.450369 -0.137909,6.238424 -0.190031,9.370808 -0.04122,2.477474 -0.09424,3.130876 -0.166066,2.04665 z m 10.786559,-3.438867 c -2.654568,-2.755019 -3.366389,-3.493461 -5.471839,-5.676474 -4.230798,-4.386661 -6.208531,-6.4472642 -6.429824,-6.6992448 -0.326442,-0.37171 -0.323236,-0.3695075 2.368416,1.6274958 1.257683,0.933106 2.741084,2.031323 3.296446,2.440483 0.555363,0.40916 1.753294,1.293746 2.662069,1.965747 0.908775,0.672001 2.023768,1.496065 2.477762,1.831253 0.453995,0.335188 1.223662,0.905473 1.71037,1.2673 0.486709,0.361827 0.936241,0.657867 0.998961,0.657867 0.06272,0 0.477216,-0.287839 0.921101,-0.639643 0.443885,-0.351804 1.935867,-1.529577 3.315515,-2.617274 1.379648,-1.087697 2.517635,-2.025327 2.528862,-2.083622 0.01667,-0.08657 -0.02543,-0.105991 -0.229762,-0.105991 -0.221292,0 -3.403216,0.255902 -5.327725,0.428477 -2.503189,0.224465 -5.965596,0.491256 -6.03414,0.464953 -0.07842,-0.03009 -0.575134,-0.953901 -0.575134,-1.069654 0,-0.07354 0.330909,-0.106441 2.539675,-0.252544 2.317214,-0.153275 3.040887,-0.201907 6.395084,-0.429755 4.32133,-0.293545 4.48644,-0.302411 4.712167,-0.25302 0.182253,0.03988 0.211182,0.06921 0.194015,0.196723 -0.025,0.185682 -0.361346,0.731598 -1.016095,1.649184 -0.51836,0.726444 -3.995193,5.613944 -5.071693,7.129447 -1.474441,2.075726 -1.722984,2.41728 -1.759011,2.41728 -0.02103,0 -1.013377,-1.012045 -2.20522,-2.248988 z"
           style="fill:#04aeed;stroke-width:0.06119698" />
        <path
           sodipodi:nodetypes="csscsssscsscsssccsccsccscssscc"
           inkscape:connector-curvature="0"
           id="path3797"
           d="m 18.929434,39.963739 c -2.4229,-3.515458 -5.375009,-7.861731 -5.354105,-7.882635 0.01433,-0.01433 1.428463,1.402804 3.142512,3.149193 1.714049,1.746389 3.166768,3.194468 3.228263,3.217955 0.07747,0.02959 1.458729,-0.573497 4.497977,-1.963914 2.412393,-1.103637 6.809569,-3.114461 9.771503,-4.468496 4.059061,-1.855583 5.385334,-2.487476 5.385334,-2.565808 0,-0.07645 -0.854049,-0.522675 -3.230785,-1.688017 l -3.230785,-1.584093 -2.521731,0.639285 c -1.386952,0.351606 -5.164748,1.304159 -8.3951,2.116785 -3.230354,0.812626 -5.894717,1.490695 -5.920808,1.50682 -0.02609,0.01613 -0.04744,0.06273 -0.04744,0.103566 0,0.09417 3.621615,3.712742 3.715861,3.712742 0.03846,0 3.021778,-0.868656 6.629593,-1.930346 3.607815,-1.06169 6.586547,-1.921384 6.619403,-1.910433 0.05509,0.01836 -13.34036,5.651691 -13.53062,5.690176 -0.07805,0.01579 -1.084942,-1.047665 -4.443987,-4.693637 -0.706825,-0.767202 -1.293746,-1.430968 -1.30427,-1.475036 -0.01156,-0.04839 0.07328,-0.10415 0.21419,-0.140787 0.394262,-0.102507 9.442873,-2.410507 13.360074,-3.40771 2.036329,-0.51839 4.102675,-1.044524 4.591878,-1.169189 l 0.889462,-0.226662 4.583303,2.170839 c 2.520817,1.193962 4.591568,2.197386 4.60167,2.229831 0.0101,0.03244 -2.218564,1.159911 -4.95259,2.50548 -5.01203,2.466703 -15.525098,7.650488 -16.926828,8.346284 -0.416253,0.206621 -0.793216,0.375675 -0.837695,0.375675 -0.04448,0 -0.284905,-0.29604 -0.534281,-0.657868 z"
           style="fill:#7d7d80;stroke-width:0.06119698" />
        <path
           sodipodi:nodetypes="cssssssscscssscsscccscssscsccsssscc"
           inkscape:connector-curvature="0"
           id="path3795"
           d="m 16.665457,36.554916 c -1.505169,-2.203023 -2.736671,-4.01936 -2.736671,-4.036307 0,-0.02784 3.064776,3.062834 5.137627,5.181046 0.452782,0.46269 0.866515,0.841255 0.919407,0.841255 0.08424,0 3.079283,-1.361387 14.902931,-6.774079 1.581941,-0.72419 3.309991,-1.512084 3.84011,-1.750876 0.79207,-0.356787 0.963852,-0.456642 0.963852,-0.560278 0,-0.105766 -0.526744,-0.384445 -3.265071,-1.727412 l -3.265073,-1.601301 -4.736432,1.188143 c -12.479065,3.130395 -12.201122,3.058171 -12.223936,3.176414 -0.01511,0.07832 0.52861,0.661594 1.835532,1.969044 1.021353,1.021765 1.887147,1.857754 1.923986,1.857754 0.03684,0 2.830769,-0.813239 6.208733,-1.807198 3.377963,-0.993958 6.21201,-1.82199 6.297881,-1.84007 0.144746,-0.03048 -1.528196,0.685579 -4.800826,2.054858 -0.740483,0.30982 -2.695727,1.127816 -4.344985,1.817769 -1.649259,0.689953 -3.14872,1.321801 -3.332136,1.404106 l -0.333483,0.149646 -0.224227,-0.231688 c -0.394228,-0.407349 -5.161603,-5.58924 -5.312195,-5.774083 -0.109926,-0.134928 -0.124693,-0.184659 -0.0612,-0.206093 0.04603,-0.01554 0.854773,-0.224139 1.797207,-0.463558 0.942433,-0.239419 4.288378,-1.09323 7.435432,-1.897357 3.147055,-0.804127 6.623327,-1.686211 7.72505,-1.960186 l 2.003133,-0.498137 4.42255,2.093871 c 2.432402,1.151628 4.490191,2.128641 4.572864,2.171139 0.142748,0.07338 0.09963,0.101884 -0.856758,0.566308 -0.55389,0.268972 -3.279009,1.611183 -6.055822,2.982693 -2.776813,1.371509 -5.709678,2.817404 -6.517478,3.213099 -0.8078,0.395694 -2.873198,1.414386 -4.589773,2.263759 -3.265292,1.615689 -4.478808,2.203213 -4.550684,2.203213 -0.02358,0 -1.274379,-1.802472 -2.779548,-4.005494 z"
           style="fill:#717276;stroke-width:0.06119698" />
      </g>
    </g>
  </g>
  <g
     id="materialForeground"
     inkscape:groupmode="layer"
     inkscape:label="Material foreground"
     clip-path="url(#clipSilhouette)" />
  <g
     id="finish"
     inkscape:groupmode="layer"
     inkscape:label="Finish"
     clip-path="url(#clipSilhouette)" />
</svg>
