<?xml version="1.0" encoding="UTF-8" standalone="no"?>
<svg
   xmlns:dc="http://purl.org/dc/elements/1.1/"
   xmlns:cc="http://creativecommons.org/ns#"
   xmlns:rdf="http://www.w3.org/1999/02/22-rdf-syntax-ns#"
   xmlns:svg="http://www.w3.org/2000/svg"
   xmlns="http://www.w3.org/2000/svg"
   xmlns:sodipodi="http://sodipodi.sourceforge.net/DTD/sodipodi-0.dtd"
   xmlns:inkscape="http://www.inkscape.org/namespaces/inkscape"
   version="1.1"
   xml:space="preserve"
   height="143"
   width="300"
   enable-background="new 0 0 196.6 72"
   y="0px"
   x="0px"
   viewBox="0 0 300.00001 143"
   id="svg2"
   inkscape:version="0.92.2 5c3e80d, 2017-08-06"
   sodipodi:docname="logo.svg"
   inkscape:export-filename="/home/leonidas/nextcloud_src/techsize/android/src/main/res/drawable-xxxhdpi/notification_icon.png"
   inkscape:export-xdpi="148.64516"
   inkscape:export-ydpi="148.64516"><metadata
     id="metadata10"><rdf:RDF><cc:Work
         rdf:about=""><dc:format>image/svg+xml</dc:format><dc:type
           rdf:resource="http://purl.org/dc/dcmitype/StillImage" /><dc:title></dc:title></cc:Work></rdf:RDF></metadata><defs
     id="defs8" /><sodipodi:namedview
     pagecolor="#ffffff"
     bordercolor="#666666"
     borderopacity="1"
     objecttolerance="10"
     gridtolerance="10"
     guidetolerance="10"
     inkscape:pageopacity="0"
     inkscape:pageshadow="2"
     inkscape:window-width="1920"
     inkscape:window-height="1033"
     id="namedview6"
     showgrid="false"
     inkscape:zoom="1.7352941"
     inkscape:cx="106.00213"
     inkscape:cy="223.78008"
     inkscape:window-x="0"
     inkscape:window-y="22"
     inkscape:window-maximized="1"
     inkscape:current-layer="svg2"
     inkscape:pagecheckerboard="true"
     fit-margin-top="0"
     fit-margin-left="0"
     fit-margin-right="0"
     fit-margin-bottom="0" /><path
     style="fill:#ffffff;stroke-width:0.22070159"
     d="m 46.724201,127.15597 c -5.76922,-8.5379 -21.18731,-30.966649 -21.36893,-31.085429 -0.13064,-0.08544 -0.12311,-0.1922 0.0198,-0.280518 0.12689,-0.07842 0.31559,0.0091 0.41933,0.194484 0.18366,0.32817 2.66693,2.861152 17.89805,18.256283 6.48763,6.55749 7.41208,7.41301 7.8349,7.25066 0.5263,-0.20207 2.82458,-1.24448 4.89342,-2.21947 0.72832,-0.34323 9.36879,-4.29889 19.20104,-8.79035 9.83226,-4.49146 18.17478,-8.3231 18.53894,-8.51477 0.36416,-0.19166 0.72985,-0.34908 0.81265,-0.34983 0.0828,-6.6e-4 1.17527,-0.48616 2.42771,-1.07869 1.25245,-0.592528 3.866229,-1.797985 5.808399,-2.678787 6.64171,-3.012107 11.03496,-5.013517 12.91105,-5.881812 1.03178,-0.477532 2.75245,-1.259522 3.82372,-1.737758 l 1.94776,-0.869518 -4.69026,-2.272743 c -2.57964,-1.250007 -4.82172,-2.222293 -4.98241,-2.160633 -0.16068,0.06166 -0.29214,-0.01384 -0.29214,-0.167771 0,-0.153933 -2.20978,-1.356615 -4.91061,-2.672628 -2.70084,-1.316012 -5.73654,-2.799429 -6.746,-3.29648 l -1.835389,-0.903733 -12.39987,3.124602 c -6.81992,1.718531 -20.39478,5.13193 -30.16634,7.585333 -9.77156,2.453402 -17.83879,4.524773 -17.92718,4.603045 -0.0884,0.07827 2.79458,3.096359 6.40659,6.706858 l 6.56728,6.564545 2.20078,-0.66209 c 1.21043,-0.36414 8.80527,-2.60484 16.87743,-4.97933 8.07216,-2.374489 19.23181,-5.659207 24.79922,-7.29937 5.567409,-1.640166 10.158989,-2.945695 10.203499,-2.90118 0.0445,0.04452 -0.28972,0.237298 -0.74274,0.428404 -1.25614,0.529893 -18.894419,7.880825 -24.880159,10.369056 -2.91326,1.21102 -5.59479,2.33478 -5.95894,2.49724 -0.36416,0.16245 -4.98234,2.10147 -10.26263,4.30892 -5.28028,2.20746 -10.47507,4.384 -11.54398,4.83677 l -1.94346,0.82322 -1.57738,-1.67421 c -2.49329,-2.64633 -3.33051,-3.54713 -4.94366,-5.3191 -2.45051,-2.69177 -11.09324,-12.06923 -13.56702,-14.720381 -0.70374,-0.754188 -1.20859,-1.413746 -1.12191,-1.465684 0.0867,-0.05193 1.9453,-0.545497 4.13024,-1.096801 2.18495,-0.551301 6.10792,-1.548899 8.71771,-2.216881 2.6098,-0.667984 6.93003,-1.772635 9.60052,-2.454784 2.67049,-0.682149 6.74244,-1.724774 9.04877,-2.316943 4.61338,-1.184525 11.50128,-2.94513 20.30455,-5.190018 6.20886,-1.583296 14.51014,-3.709875 16.41293,-4.204578 1.13099,-0.294047 1.23886,-0.2831 2.38743,0.242267 0.66161,0.302624 1.310879,0.483502 1.442829,0.401953 0.13195,-0.08155 0.17873,-0.04929 0.10396,0.0717 -0.0748,0.120984 0.48094,0.501893 1.23493,0.846466 0.75398,0.34457 2.61233,1.216692 4.12965,1.938049 1.51733,0.721356 3.5533,1.684566 4.52439,2.140467 0.97108,0.455901 2.9574,1.3985 4.41403,2.094666 1.45663,0.696165 5.52857,2.629251 9.04876,4.295744 3.52019,1.666496 6.79685,3.233857 7.28146,3.483024 l 0.88111,0.453032 -7.28146,3.581605 c -4.0048,1.969883 -9.76435,4.798573 -12.79899,6.285981 -5.06976,2.484896 -23.960169,11.801106 -36.195069,17.850366 -2.79187,1.38038 -7.708,3.80139 -10.92472,5.38002 -3.21673,1.57863 -8.06489,3.97442 -10.77369,5.32397 -2.7088,1.34956 -5.04272,2.45109 -5.18649,2.44784 -0.14376,-0.003 -1.1488,-1.31918 -2.2334,-2.92429 z M 186.29991,90.310248 c -0.85593,-0.574961 -1.11457,-1.466472 -0.55917,-1.927414 0.43205,-0.358567 0.43608,-0.76012 0.0112,-1.112768 -0.44304,-0.367693 -0.41904,-1.321067 0.0501,-1.990885 0.4247,-0.606334 0.57382,-1.169593 0.25797,-0.974387 -0.11271,0.06966 -0.14779,0.219104 -0.078,0.332103 0.0698,0.112997 0.075,0.205451 0.0114,0.205451 -0.0636,0 -0.22833,-0.210615 -0.3661,-0.468037 -0.17605,-0.328949 -0.17836,-0.423458 -0.008,-0.318027 0.15905,0.0983 0.24272,-0.119563 0.24272,-0.63199 0,-0.54909 0.18853,-0.993 0.633,-1.490446 0.56673,-0.634274 0.78047,-0.716464 2.04149,-0.78498 0.87778,-0.04769 1.61475,0.03247 1.9559,0.212738 0.47372,0.250331 0.59997,0.236696 0.93798,-0.101308 0.56872,-0.568717 1.23809,-0.497667 1.40031,0.148631 0.16838,0.670887 -0.0252,1.005702 -0.58136,1.005702 -0.32617,0 -0.42837,0.153661 -0.42837,0.644054 0,1.520064 -0.86477,2.074451 -3.19295,2.046949 -1.82063,-0.02151 -2.3246,0.09211 -2.3246,0.524043 0,0.255389 0.46955,0.316179 2.44222,0.316179 2.33089,0 3.18782,0.180179 3.56852,0.750319 0.28026,0.419737 0.18347,1.658838 -0.19624,2.512119 -0.20082,0.451297 -0.35099,0.891455 -0.3337,0.978125 0.0173,0.08667 -0.10353,0.105789 -0.26851,0.04248 -0.16497,-0.06331 -0.43935,0.0243 -0.60972,0.19468 -0.20484,0.204836 -0.90736,0.325579 -2.0737,0.356409 -1.52878,0.04041 -1.86638,-0.02221 -2.53262,-0.469743 z m 4.07665,-0.262977 c 0.41151,-0.171942 0.92421,-0.581244 1.13933,-0.909564 0.36859,-0.562538 0.36936,-0.612871 0.0133,-0.873235 -0.22836,-0.166983 -1.1986,-0.291591 -2.45238,-0.314961 -1.93704,-0.03611 -2.08436,-0.0077 -2.22306,0.429326 -0.22185,0.698987 0.0389,1.437308 0.6038,1.709546 0.71228,0.343273 2.04395,0.324515 2.91902,-0.04111 z m -0.76238,-6.87321 c 0,-0.837223 -0.0866,-1.394046 -0.20545,-1.32061 -0.113,0.06984 -0.268,0.02577 -0.34445,-0.09792 -0.0941,-0.152319 -0.27712,-0.150975 -0.567,0.0042 -0.34087,0.182419 -0.42801,0.467133 -0.42801,1.398368 0,1.348912 0.072,1.463578 0.91959,1.463578 0.62307,0 0.62532,-0.0052 0.62532,-1.447586 z m 4.23747,7.362388 c -0.36649,-0.36649 -0.33162,-1.170599 0.065,-1.499795 0.31169,-0.258684 0.65703,-0.236956 1.44684,0.09104 0.24359,0.101159 0.45021,-0.08451 0.71728,-0.644554 0.47143,-0.988602 0.46981,-1.305349 -0.0111,-2.172176 -0.43634,-0.786499 -0.72549,-1.048181 -0.98261,-0.889271 -0.0968,0.05985 -0.17607,0.01192 -0.17607,-0.106522 0,-0.118435 0.12415,-0.260198 0.27588,-0.315031 0.18307,-0.06616 0.0532,-0.34367 -0.38623,-0.824983 -0.36416,-0.398905 -0.52805,-0.64828 -0.36421,-0.554164 0.23709,0.136186 0.24994,0.08152 0.063,-0.267808 -0.16988,-0.317437 -0.40506,-0.415133 -0.84965,-0.352968 -0.59446,0.08312 -0.5976,0.07848 -0.0951,-0.140883 0.34462,-0.150436 0.47471,-0.343948 0.38623,-0.574523 -0.0734,-0.191225 -0.13342,-0.389216 -0.13342,-0.439982 0,-0.05076 -0.14897,-0.0923 -0.33105,-0.0923 -0.40026,0 -0.44171,-0.360037 -0.0552,-0.479297 0.6965,-0.214902 3.33297,-0.05811 3.4205,0.20342 0.0508,0.151733 -0.0649,0.275877 -0.25711,0.275877 -0.46257,0 -0.45875,0.01772 0.34682,1.606381 l 0.69626,1.373091 0.59827,-1.32421 c 0.6489,-1.436295 0.64415,-1.655262 -0.0359,-1.655262 -0.25897,0 -0.40818,-0.115791 -0.35495,-0.275464 0.12507,-0.37523 2.41304,-0.375601 2.53816,-4.41e-4 0.0529,0.158618 -0.0932,0.275877 -0.34376,0.275877 -0.44507,0 -0.62579,0.359163 -3.03016,6.0219 -0.45279,1.066408 -1.01581,2.183709 -1.25115,2.482892 -0.46356,0.589329 -1.44237,0.733381 -1.89662,0.279131 z m -59.85427,-3.376734 c 0,-0.220702 0.2207,-0.331052 0.6621,-0.331052 h 0.66211 V 82.30428 77.779898 h -0.68391 c -0.81863,0 -1.85757,0.996957 -2.07617,1.992286 -0.0793,0.360874 -0.2852,0.656133 -0.45763,0.656133 -0.34045,0 -0.43061,-1.345699 -0.17558,-2.620832 l 0.13794,-0.689692 h 4.71749 4.7175 l 0.003,1.158683 c 0.002,0.637276 0.0629,1.382144 0.1361,1.655262 0.22414,0.836384 -0.5126,0.598622 -0.79482,-0.256504 -0.34552,-1.046964 -1.25095,-1.895336 -2.02279,-1.895336 h -0.63201 v 4.524382 4.524383 h 0.55175 c 0.34331,0 0.55175,0.125065 0.55175,0.331052 0,0.275877 -0.4414,0.331052 -2.64841,0.331052 -2.20702,0 -2.64842,-0.05518 -2.64842,-0.331052 z m 7.86609,-0.08782 c -1.50441,-0.991835 -1.93905,-3.000703 -0.96477,-4.459106 1.66284,-2.489118 6.07674,-1.795489 6.11225,0.96052 l 0.008,0.60693 h -1.98629 -1.98632 v 1.169723 c 0,0.643345 0.11918,1.288897 0.26484,1.43456 0.64972,0.649713 2.49224,0.08512 3.03561,-0.930188 0.34382,-0.642432 0.67218,-0.748662 0.67218,-0.21746 0,0.194217 -0.33767,0.690796 -0.75038,1.103508 -0.70775,0.707741 -0.8363,0.750304 -2.2622,0.748931 -1.10883,-0.0011 -1.67997,-0.112328 -2.14272,-0.417413 z m 2.9058,-4.491743 c -0.066,-0.911919 -0.0893,-0.937982 -0.84032,-0.937982 -0.75099,0 -0.77434,0.02606 -0.84032,0.937982 l -0.0679,0.937982 h 0.90818 0.90819 z m 4.87866,4.418856 c -0.77851,-0.464336 -1.13961,-1.022267 -1.42394,-2.200119 -0.2067,-0.856286 0.23192,-1.972511 1.10922,-2.822832 0.63118,-0.611761 0.9696,-0.75508 1.98105,-0.838958 1.45952,-0.121035 2.50283,0.251757 2.78553,0.995309 0.31462,0.827505 0.24573,1.126285 -0.34962,1.516372 -0.51112,0.334895 -0.59239,0.334895 -1.10351,0 -0.56174,-0.368066 -0.759,-1.30072 -0.33105,-1.565206 0.42416,-0.262148 0.21565,-0.551754 -0.39726,-0.551754 -1.01018,0 -1.14765,0.330469 -1.14765,2.758769 0,1.439465 0.0938,2.322902 0.26484,2.493928 0.62393,0.623928 2.32897,0.05147 2.77728,-0.932464 0.2243,-0.492275 0.70981,-0.798022 0.70981,-0.446996 0,0.375438 -0.7171,1.408869 -1.19482,1.721879 -0.80715,0.528869 -2.68834,0.463471 -3.67988,-0.127928 z m 5.7575,0.160702 c 0,-0.182079 0.18801,-0.331052 0.41779,-0.331052 0.58276,0 0.64431,-0.280845 0.60765,-2.77233 -0.0308,-2.095367 -0.0545,-2.19661 -0.52886,-2.263981 -0.27312,-0.03879 -0.49658,-0.212591 -0.49658,-0.386228 0,-0.24574 0.36682,-0.315703 1.65526,-0.315703 1.63364,0 1.65527,0.0075 1.65527,0.571373 v 0.571374 l 0.67904,-0.571374 c 0.88532,-0.744954 2.65367,-0.81905 3.13534,-0.131373 0.1695,0.241999 0.34894,0.398854 0.39874,0.348567 0.0498,-0.05029 0.0597,1.042815 0.022,2.429121 -0.0658,2.420278 -0.0505,2.520554 0.38623,2.520554 0.2571,0 0.45476,0.143893 0.45476,0.331052 0,0.269746 -0.36783,0.331052 -1.98631,0.331052 -1.61848,0 -1.98632,-0.06131 -1.98632,-0.331052 0,-0.183917 0.19618,-0.331052 0.44141,-0.331052 0.41434,0 0.4414,-0.147136 0.4414,-2.40013 v -2.40013 h -0.55743 c -1.0139,0 -1.42888,0.85794 -1.42888,2.95406 0,1.493931 0.0632,1.8462 0.33105,1.8462 0.18208,0 0.33105,0.148973 0.33105,0.331052 0,0.269746 -0.36784,0.331052 -1.98631,0.331052 -1.61848,0 -1.98632,-0.06131 -1.98632,-0.331052 z m 10.92473,0.104021 c -0.24277,-0.109479 -0.73252,-0.444045 -1.08834,-0.743482 -0.55023,-0.463052 -0.66037,-0.736364 -0.73681,-1.828448 -0.0752,-1.07387 -0.005,-1.410442 0.42915,-2.056473 0.70736,-1.05276 1.96905,-1.63991 3.36471,-1.565834 1.32224,0.07018 2.08317,0.430401 2.86044,1.354139 0.46585,0.553636 0.57804,0.915982 0.57804,1.866956 0,1.307008 -0.59096,2.261684 -1.78094,2.877049 -0.6861,0.354795 -2.92123,0.414025 -3.62625,0.09609 z m 2.73718,-0.90941 c 0.32719,-0.938579 0.30133,-3.47863 -0.0424,-4.160397 -0.47179,-0.935871 -1.68702,-0.82854 -1.84885,0.163293 -0.28112,1.722958 -0.29591,2.407016 -0.075,3.47102 0.24619,1.18592 0.27469,1.221122 0.98872,1.221122 0.62622,0 0.77113,-0.103037 0.97751,-0.695038 z m 3.33212,0.805389 c 0,-0.183917 0.19618,-0.331052 0.4414,-0.331052 0.42705,0 0.4414,-0.147136 0.4414,-4.524383 0,-4.377247 -0.0143,-4.524382 -0.4414,-4.524382 -0.24522,0 -0.4414,-0.147135 -0.4414,-0.331053 0,-0.243822 0.25442,-0.331052 0.96557,-0.331052 0.53106,0 1.27593,-0.06207 1.65526,-0.137939 l 0.68969,-0.137938 v 4.993373 c 0,4.846238 0.013,4.993374 0.4414,4.993374 0.24523,0 0.44141,0.147135 0.44141,0.331052 0,0.271037 -0.3801,0.331052 -2.09667,0.331052 -1.71657,0 -2.09666,-0.06001 -2.09666,-0.331052 z m 6.4861,-0.08933 c -1.06259,-0.647949 -1.63067,-1.597626 -1.63067,-2.726045 0,-1.934129 1.50729,-3.252931 3.71857,-3.253573 2.27203,-6.63e-4 3.56219,1.141744 3.56376,3.155615 0.002,2.151871 -1.19684,3.244945 -3.55645,3.243563 -0.99353,-6.62e-4 -1.61083,-0.124193 -2.09521,-0.41956 z m 3.00953,-0.587139 c 0.36396,-0.9573 0.27125,-4.20177 -0.13158,-4.604601 -0.40318,-0.403185 -0.83454,-0.438804 -1.43331,-0.118352 -0.37949,0.203101 -0.42689,0.480013 -0.42689,2.493928 0,2.469472 0.13435,2.795146 1.15311,2.795146 0.46613,0 0.67773,-0.142836 0.83867,-0.566121 z m 23.60961,0.676472 c 0,-0.183917 0.19618,-0.331052 0.4414,-0.331052 0.41581,0 0.4414,-0.147136 0.4414,-2.538069 v -2.538068 h -0.54483 c -0.38014,0 -0.50845,-0.09479 -0.42448,-0.313606 0.0839,-0.218602 0.58337,-0.335603 1.64883,-0.386227 l 1.52849,-0.07262 -4.4e-4,2.924296 -5.5e-4,2.924296 h 0.55175 c 0.34332,0 0.55176,0.125065 0.55176,0.331052 0,0.271037 -0.3801,0.331052 -2.09667,0.331052 -1.71657,0 -2.09666,-0.06001 -2.09666,-0.331052 z m 4.41403,-0.08969 c 0,-0.312083 0.11399,-0.390931 0.4414,-0.305312 0.4227,0.110539 0.4414,0.0068 0.4414,-2.448379 v -2.563809 h -0.55175 c -0.34331,0 -0.55175,-0.125065 -0.55175,-0.331052 0,-0.264842 0.33105,-0.331053 1.65526,-0.331053 h 1.65526 v 0.645129 0.645126 l 0.64513,-0.645126 c 0.53827,-0.538274 0.82505,-0.645129 1.73141,-0.645129 1.68017,0 1.91022,0.383037 2.00184,3.333056 0.0682,2.19489 0.11159,2.405186 0.49658,2.405186 0.23203,0 0.42188,0.148973 0.42188,0.331052 0,0.269746 -0.36784,0.331052 -1.98632,0.331052 -1.61847,0 -1.98631,-0.06131 -1.98631,-0.331052 0,-0.182079 0.18774,-0.331052 0.4172,-0.331052 0.37874,0 0.42,-0.199766 0.44761,-2.167197 0.0262,-1.866738 -0.0273,-2.219404 -0.38571,-2.543771 -0.39252,-0.355228 -0.44318,-0.354359 -0.8937,0.01536 -0.58211,0.477716 -0.73289,1.025384 -0.85224,3.095526 -0.0866,1.502801 -0.0643,1.600086 0.3666,1.600086 0.26072,0 0.45884,0.142942 0.45884,0.331052 0,0.269746 -0.36784,0.331053 -1.98632,0.331053 -1.80666,0 -1.98631,-0.03805 -1.98631,-0.420741 z m 8.60736,0.08969 c 0,-0.182079 0.18851,-0.331052 0.41891,-0.331052 0.38542,0 0.42128,-0.202947 0.4485,-2.538069 l 0.0296,-2.538068 h -0.55885 c -0.30737,0 -0.55885,-0.09931 -0.55885,-0.220701 0,-0.121386 0.23565,-0.220702 0.52367,-0.220702 0.46655,0 0.53515,-0.119373 0.62882,-1.094203 0.18826,-1.959289 1.95638,-3.551042 3.57654,-3.219789 0.37299,0.07626 0.83859,0.155888 1.03468,0.176952 0.27449,0.02949 0.35066,0.268627 0.33105,1.039337 -0.0251,0.985774 -0.0369,1.001038 -0.77387,1.001038 -0.9319,0 -1.36994,-0.554363 -0.95855,-1.213095 0.23964,-0.383734 0.22113,-0.442167 -0.14012,-0.442167 -0.65564,0 -0.84872,0.441207 -0.89341,2.04149 -0.0433,1.551759 -0.0192,1.587994 1.03005,1.549027 0.15173,-0.0056 0.27587,0.127691 0.27587,0.296283 0,0.193454 -0.24424,0.30653 -0.6621,0.30653 h -0.66211 v 2.538068 2.538069 h 0.55176 c 0.34331,0 0.55175,0.125065 0.55175,0.331052 0,0.271037 -0.3801,0.331052 -2.09666,0.331052 -1.71657,0 -2.09667,-0.06001 -2.09667,-0.331052 z m 7.1728,-0.0077 c -1.16265,-0.59012 -1.65294,-1.395425 -1.65416,-2.716988 -0.002,-2.121309 1.28069,-3.344581 3.50697,-3.344581 1.32563,0 2.07129,0.262209 3.00351,1.056159 0.38691,0.329508 0.89258,0.721657 1.12375,0.871445 0.2804,0.181699 0.3101,0.255155 0.0892,0.220701 -0.23267,-0.03629 -0.34785,0.177936 -0.38758,0.720816 -0.17601,2.405257 -1.35235,3.532241 -3.68441,3.529866 -0.75602,-6.62e-4 -1.62241,-0.147135 -1.99731,-0.337422 z m 2.71463,-0.367468 c 0.16482,-0.164817 0.26484,-0.979782 0.26484,-2.15787 0,-1.848695 -0.0163,-1.907367 -0.6979,-2.505424 -0.63745,-0.55935 -0.72825,-0.582052 -1.04833,-0.262057 -0.24845,0.248385 -0.37176,0.877971 -0.42372,2.163339 -0.0918,2.271947 0.16177,3.026854 1.01683,3.026854 0.34291,0 0.74262,-0.119179 0.88828,-0.264842 z m 3.94321,0.55911 c -0.2798,-0.279803 -0.14542,-0.514969 0.29426,-0.514969 0.41583,0 0.44141,-0.147136 0.44141,-2.538069 0,-2.424775 -0.0205,-2.538068 -0.45979,-2.538068 -0.26932,0 -0.42205,-0.114286 -0.36864,-0.275877 0.0577,-0.174665 0.63123,-0.299818 1.5633,-0.341136 l 1.47214,-0.06526 v 0.689123 0.689121 l 0.57138,-0.679037 c 1.12271,-1.334265 2.78624,-0.717181 2.6819,0.994845 -0.0522,0.856689 -0.066,0.869842 -0.82556,0.786393 -0.98941,-0.108704 -1.3224,-0.385782 -1.33156,-1.107915 l -0.007,-0.579907 -0.43408,0.521028 c -0.35998,0.432112 -0.43405,0.855841 -0.43405,2.482893 0,1.945522 0.005,1.961865 0.55175,1.961865 0.34333,0 0.55176,0.125065 0.55176,0.331052 0,0.270622 -0.37601,0.331052 -2.05988,0.331052 -1.13295,0 -2.1261,-0.06621 -2.20701,-0.147135 z m 6.84175,0 c -0.2798,-0.279803 -0.14542,-0.514969 0.29426,-0.514969 0.41583,0 0.44141,-0.147136 0.44141,-2.538069 0,-2.390933 -0.0256,-2.538068 -0.44141,-2.538068 -0.24522,0 -0.4414,-0.147135 -0.4414,-0.331052 0,-0.262741 0.31878,-0.331053 1.54491,-0.331053 h 1.54491 v 0.674412 0.674413 l 0.49658,-0.571514 c 0.88495,-1.018495 3.04941,-1.029376 3.51039,-0.01763 l 0.24002,0.526789 0.48274,-0.56122 c 0.36488,-0.424211 0.75841,-0.587709 1.61196,-0.669726 0.99604,-0.0957 1.19626,-0.04148 1.69746,0.459715 0.53864,0.538649 0.56821,0.689346 0.56821,2.89562 0,2.180263 0.0279,2.327398 0.44141,2.327398 0.24522,0 0.4414,0.147135 0.4414,0.331052 0,0.269746 -0.36784,0.331052 -1.98631,0.331052 -1.61847,0 -1.98632,-0.06131 -1.98632,-0.331052 0,-0.182079 0.14898,-0.331052 0.33105,-0.331052 0.27409,0 0.33106,-0.415434 0.33106,-2.414692 0,-1.337756 -0.0964,-2.47427 -0.21614,-2.548276 -0.3853,-0.23813 -1.13736,0.344412 -1.46885,1.137774 -0.19287,0.461655 -0.30495,1.343576 -0.27771,2.185379 0.0373,1.153437 0.12004,1.434959 0.45244,1.540464 0.22372,0.071 0.40675,0.271376 0.40675,0.445276 0,0.24964 -0.39479,0.316179 -1.87596,0.316179 -1.5204,0 -1.87597,-0.06275 -1.87597,-0.331052 0,-0.182079 0.14898,-0.331052 0.33105,-0.331052 0.27409,0 0.33106,-0.415434 0.33106,-2.414692 0,-1.337756 -0.0964,-2.47427 -0.21614,-2.548276 -0.373,-0.230529 -1.1335,0.334511 -1.43107,1.063279 -0.18938,0.463784 -0.23414,1.085801 -0.13282,1.845787 0.084,0.630447 0.0933,1.109489 0.0205,1.064536 -0.0728,-0.04496 -0.13225,0.104875 -0.13225,0.332955 0,0.22808 0.0402,0.374491 0.0893,0.325358 0.132,-0.131995 0.6989,0.481785 0.6989,0.756691 0,0.259552 -3.57186,0.342962 -3.82549,0.08933 z M 252.637,87.000279 c -0.8405,-1.199966 -0.0356,-2.553809 1.81348,-3.050343 0.57372,-0.154061 1.1921,-0.289406 1.37418,-0.300768 0.22702,-0.01417 0.35226,-0.313111 0.39857,-0.951336 0.0606,-0.835241 0.0106,-0.944958 -0.48711,-1.069882 -0.86434,-0.216932 -1.0949,-0.0279 -1.11068,0.910573 -0.0146,0.864598 -0.0194,0.869288 -0.89744,0.869288 -0.82265,0 -0.88729,-0.04588 -0.94869,-0.673383 -0.1147,-1.172225 0.54842,-1.533633 2.8139,-1.533633 2.63209,0 2.65917,0.02949 2.65917,2.896144 v 2.290343 h 0.55175 c 0.65405,0 0.70168,0.237323 0.14816,0.738249 -0.51084,0.4623 -1.76069,0.472333 -2.26254,0.01816 -0.34882,-0.315663 -0.44434,-0.315663 -1.05476,0 -1.03118,0.533248 -2.57579,0.45936 -2.99799,-0.143414 z m 2.96696,-0.626022 c 0,-0.12855 0.0889,-0.178777 0.19757,-0.111618 0.25372,0.156806 0.46453,-0.395764 0.46453,-1.217617 0,-0.558258 -0.0823,-0.644054 -0.61796,-0.644054 -0.77148,0 -1.14765,0.361701 -1.14765,1.103508 0,0.620216 0.35765,1.103508 0.8166,1.103508 0.1578,0 0.28691,-0.105178 0.28691,-0.233727 z m 5.20225,0.769716 c -0.27482,-0.274826 -0.34682,-0.870385 -0.34682,-2.86912 0,-2.375169 -0.0258,-2.522304 -0.4414,-2.522304 -0.24522,0 -0.4414,-0.147135 -0.4414,-0.331052 0,-0.183917 0.19618,-0.331053 0.4414,-0.331053 0.36464,0 0.4414,-0.147135 0.4414,-0.846022 0,-0.465314 0.0427,-0.888677 0.0948,-0.940811 0.0521,-0.05213 0.5487,-0.05868 1.1035,-0.01457 1.00841,0.0802 1.00872,0.08048 1.00872,0.92615 0,0.752356 0.0652,0.853647 0.58991,0.915759 0.85922,0.101717 0.93498,0.621589 0.0906,0.621589 h -0.68049 v 2.293753 c 0,1.841362 0.0657,2.31896 0.33304,2.421551 0.19525,0.07493 0.44546,-0.05225 0.60483,-0.307439 0.35827,-0.573665 0.82055,-0.565731 0.66959,0.0115 -0.30091,1.150719 -2.63478,1.804955 -3.46766,0.972069 z m 3.84652,0.01577 c 0,-0.183917 0.19618,-0.331052 0.4414,-0.331052 0.41582,0 0.4414,-0.147136 0.4414,-2.538069 0,-2.390933 -0.0256,-2.538068 -0.4414,-2.538068 -0.24277,0 -0.4414,-0.14141 -0.4414,-0.314246 0,-0.238788 0.4126,-0.331531 1.71822,-0.386228 l 1.71825,-0.07198 -0.18033,1.655262 c -0.0992,0.910394 -0.15233,2.201498 -0.11814,2.86912 0.0547,1.068364 0.12169,1.222312 0.55875,1.284384 0.27312,0.03879 0.49658,0.212591 0.49658,0.386228 0,0.251648 -0.42541,0.315702 -2.09667,0.315702 -1.71657,0 -2.09666,-0.06001 -2.09666,-0.331052 z m 6.14106,-0.214696 c -1.99309,-1.354351 -1.79331,-4.482366 0.35129,-5.500049 0.99161,-0.470554 2.9105,-0.454657 3.86493,0.03202 2.19717,1.120361 2.33822,4.123737 0.25893,5.512799 -1.10281,0.736722 -3.35827,0.71416 -4.47515,-0.04477 z m 3.13798,-0.23825 c 0.40761,-0.491143 0.4224,-4.322787 0.0185,-4.809719 -0.3827,-0.461423 -1.21545,-0.470615 -1.66767,-0.01841 -0.26387,0.263875 -0.34681,0.821546 -0.34681,2.331875 0,1.091782 0.10281,2.177162 0.22847,2.411953 0.27959,0.522425 1.36101,0.574005 1.76743,0.0843 z m 3.66879,0.636863 c -0.30007,-0.300066 -0.13123,-0.514969 0.40461,-0.514969 h 0.55176 v -2.538069 -2.538068 h -0.55176 c -0.33019,0 -0.55175,-0.126184 -0.55175,-0.314246 0,-0.238819 0.41282,-0.331524 1.71986,-0.386228 l 1.71988,-0.07198 -0.0967,0.654764 c -0.0931,0.63058 -0.082,0.640085 0.30071,0.257393 0.83825,-0.838253 2.50368,-1.064742 3.36958,-0.45824 0.45829,0.320997 0.49051,0.509476 0.49051,2.86912 v 2.525555 h 0.57014 c 0.35774,0 0.53611,0.102787 0.47877,0.275877 -0.0614,0.185543 -0.71788,0.296757 -2.0047,0.339644 -1.60273,0.05342 -1.91333,0.0086 -1.91333,-0.275877 0,-0.186804 0.14898,-0.339644 0.33105,-0.339644 0.27409,0 0.33106,-0.415434 0.33106,-2.414692 0,-1.337756 -0.0964,-2.47427 -0.21614,-2.548276 -0.34586,-0.213742 -1.0753,0.286793 -1.43683,0.985921 -0.21097,0.407949 -0.33335,1.256324 -0.33335,2.310825 0,1.519086 0.039,1.666222 0.44141,1.666222 0.24522,0 0.4414,0.147135 0.4414,0.331052 0,0.269285 -0.36374,0.331052 -1.94952,0.331052 -1.07226,0 -2.01576,-0.06621 -2.09667,-0.147135 z m -30.92082,-1.11238 c -0.11978,-0.314544 -0.0944,-0.339894 0.12354,-0.123549 0.15083,0.149711 0.21865,0.327795 0.1507,0.395747 -0.0679,0.06795 -0.19137,-0.05454 -0.27424,-0.272198 z M 20.557131,82.804944 c -0.2764,-1.878965 -0.42031,-4.03727 -0.75447,-11.315042 -0.0669,-1.45663 -0.22528,-3.889865 -0.352,-5.407188 -0.12672,-1.517324 -0.27919,-3.652612 -0.33883,-4.745085 -0.19673,-3.603673 -0.5153,-8.994047 -0.74348,-12.57999 -0.12359,-1.942174 -0.33091,-5.269251 -0.46072,-7.393503 -0.12982,-2.124252 -0.33978,-5.500986 -0.4666,-7.503853 -0.12681,-2.002867 -0.24734,-4.783707 -0.26786,-6.179644 l -0.0373,-2.538069 0.55176,-0.0088 c 0.30346,-0.0048 0.65107,0.108196 0.77245,0.251138 0.12139,0.142942 0.71728,0.530569 1.32421,0.861394 0.60693,0.330825 1.15317,0.666756 1.21386,0.746512 0.0607,0.07976 0.38347,0.265006 0.71728,0.411665 l 0.60693,0.266653 -0.004,7.45341 c -0.002,4.099375 -0.0958,8.084989 -0.20735,8.856919 -0.1116,0.77193 -0.2225,6.261657 -0.24645,12.199393 -0.024,5.937738 -0.12927,10.848871 -0.23405,10.91363 -0.10478,0.06476 -0.19052,3.775162 -0.19052,8.24534 0,6.226976 -0.068,8.289307 -0.29076,8.819123 -0.28401,0.675457 -0.29776,0.643987 -0.59167,-1.354046 z m 6.90987,1.762006 c -0.1764,-0.272579 -0.35528,-7.379053 -0.61524,-24.443179 -0.073,-4.794742 -0.2282,-9.194352 -0.34479,-9.776909 -0.11659,-0.582557 -0.21197,-4.668706 -0.21197,-9.080327 0,-6.76584 0.0496,-8.040156 0.31679,-8.142696 0.17423,-0.06686 0.34804,-0.04867 0.38623,0.04042 0.0382,0.08909 0.56367,0.505606 1.16773,0.925585 0.60407,0.419978 1.29318,0.937399 1.53136,1.149825 0.23817,0.212425 0.50852,0.386227 0.60076,0.386227 0.0922,0 0.42584,0.239223 0.74132,0.531604 0.6617,0.613237 0.6272,0.158277 0.88849,11.717333 0.0851,3.762962 0.22907,6.941065 0.32001,7.062451 0.091,0.121386 0.18633,3.424234 0.21195,7.339661 0.0256,3.91543 0.13879,7.44048 0.25149,7.83345 0.1127,0.39297 0.20491,2.660008 0.20491,5.037862 v 4.323372 l 1.15869,-0.175603 c 0.63727,-0.09658 1.55594,-0.285502 2.04149,-0.419819 0.9825,-0.271791 1.08091,-0.291213 3.42087,-0.675108 0.9104,-0.14936 1.75458,-0.3419 1.87596,-0.427865 0.12139,-0.08597 0.66763,-0.218168 1.21386,-0.293783 1.83374,-0.253833 2.53318,-0.378477 3.42088,-0.609615 1.78232,-0.464078 2.46222,-0.609631 4.08298,-0.874073 0.91039,-0.148541 1.74961,-0.354114 1.86493,-0.456828 0.11531,-0.102715 0.61686,-0.186754 1.11454,-0.186754 0.49768,0 0.99923,-0.08969 1.11454,-0.199304 0.11532,-0.109616 0.65659,-0.2513 1.20283,-0.314851 0.89645,-0.104295 4.12372,-0.726139 6.56587,-1.265139 1.53786,-0.339418 2.71437,-0.581029 4.57956,-0.940466 2.003,-0.385993 5.74372,-1.163891 7.06245,-1.468663 1.53488,-0.354727 4.73169,-1.018418 7.50385,-1.557877 2.359919,-0.459238 3.39204,-0.672202 4.30368,-0.888002 1.18764,-0.281134 2.75916,-0.58967 4.41404,-0.866611 0.66762,-0.111726 1.61112,-0.316058 2.09666,-0.454069 0.48555,-0.138014 1.37939,-0.335992 1.98632,-0.439951 1.06745,-0.182842 2.4401,-0.471743 3.69675,-0.778053 l 0.60693,-0.147938 0.0345,-6.429794 c 0.019,-3.536386 0.0667,-6.72774 0.10593,-7.091897 0.0393,-0.364158 0.1383,-7.006995 0.22009,-14.761859 l 0.14869,-14.099755 -0.75121,0.154607 c -0.71055,0.146241 -1.78237,0.2454 -8.36541,0.773926 -1.51732,0.12182 -3.95056,0.325149 -5.407191,0.451843 -1.45663,0.126694 -3.840209,0.328574 -5.296839,0.448623 -1.45663,0.120048 -3.74089,0.313653 -5.07613,0.430232 -1.33525,0.11658 -3.71883,0.323969 -5.29684,0.460864 -1.57802,0.136895 -3.86228,0.335334 -5.07614,0.440975 -1.21386,0.105641 -3.44846,0.292912 -4.96578,0.416158 -1.51733,0.123246 -3.90091,0.327848 -5.29684,0.454672 -2.95474,0.268443 -6.52886,0.565399 -10.26263,0.85267 -1.45663,0.11207 -2.91367,0.272984 -3.23786,0.357583 -0.58482,0.152611 -1.52787,-0.329514 -2.38957,-1.221638 -0.18233,-0.188772 -1.1062,-0.875008 -2.05304,-1.524967 -1.6568,-1.13731 -2.33866,-1.868793 -2.03074,-2.178515 0.0802,-0.08064 1.3545,-0.217861 2.83183,-0.304927 1.47733,-0.08707 4.17579,-0.264825 5.99658,-0.395017 6.72569,-0.480908 9.11787,-0.655577 12.02823,-0.878258 1.63871,-0.125382 4.41955,-0.32914 6.17965,-0.452795 1.76009,-0.123655 4.54093,-0.322798 6.17964,-0.442539 1.63871,-0.119742 4.36989,-0.316682 6.0693,-0.437645 4.28173,-0.304771 8.26125,-0.595918 12.02823,-0.880002 4.39262,-0.331265 8.36436,-0.614431 12.02824,-0.857555 1.6994,-0.112767 3.636059,-0.265611 4.303679,-0.339653 0.66762,-0.07404 1.66078,-0.164964 2.20702,-0.202048 l 0.99316,-0.06743 -0.0454,10.721578 c -0.0739,17.426457 -0.49941,39.579944 -0.76648,39.901745 -0.12941,0.155925 -0.51521,0.2835 -0.85734,0.2835 -0.34213,0 -0.68344,0.09932 -0.75846,0.220701 -0.075,0.121386 -0.49592,0.220702 -0.93534,0.220702 -0.43941,0 -1.103929,0.09133 -1.476709,0.202953 -0.37277,0.111626 -2.06819,0.470966 -3.76759,0.798533 -1.69941,0.32757 -3.48709,0.683756 -3.97263,0.791529 -2.5474,0.56542 -4.74318,0.994799 -6.0693,1.186834 -0.54623,0.0791 -1.191781,0.229362 -1.434561,0.333913 -0.4168,0.179499 -0.71767,0.237779 -2.869119,0.555759 -0.48554,0.07176 -1.08143,0.216021 -1.32421,0.320572 -0.40457,0.174233 -1.07725,0.297689 -3.20017,0.587324 -0.42485,0.05796 -0.97109,0.192388 -1.21386,0.29872 -0.24277,0.106332 -0.78901,0.243634 -1.21386,0.305117 -0.42485,0.06148 -1.21937,0.207877 -1.76561,0.325321 -0.54624,0.117447 -1.53939,0.325515 -2.20702,0.462377 -0.66762,0.136861 -1.71043,0.351449 -2.31736,0.476863 -0.60693,0.125411 -1.34983,0.264224 -1.65088,0.30847 -1.4708,0.216166 -3.43726,0.655298 -3.53561,0.78954 -0.0607,0.08284 -0.55727,0.205873 -1.10351,0.273408 -0.9201,0.113756 -2.2453,0.35609 -3.86228,0.706282 -0.94029,0.203639 -3.81133,0.792233 -4.85543,0.995413 -1.4116,0.274696 -3.44996,0.67843 -4.52438,0.896134 -0.54624,0.11068 -1.39042,0.25808 -1.87597,0.32755 -0.48554,0.06947 -1.08144,0.208153 -1.32421,0.308175 -0.24277,0.100024 -1.18627,0.301354 -2.09666,0.447399 -0.9104,0.146047 -1.80424,0.318221 -1.98632,0.382608 -0.5427,0.191914 -3.58405,0.782767 -5.5741,1.082899 -0.45596,0.06877 -0.88391,0.213853 -0.951,0.322417 -0.0671,0.108563 -0.41266,0.197388 -0.76791,0.197388 -0.58898,0 -1.32303,0.140389 -3.52137,0.673465 -1.56925,0.380529 -2.617,0.438384 -2.80062,0.154645 z M 206.73432,79.419395 c -0.41162,-0.41162 -0.45336,-1.223971 -0.082,-1.595357 0.14567,-0.145663 0.52307,-0.264842 0.83867,-0.264842 0.3156,0 0.693,0.119179 0.83867,0.264842 0.14566,0.145663 0.26484,0.523063 0.26484,0.838666 0,0.315603 -0.11918,0.693003 -0.26484,0.838666 -0.37139,0.371386 -1.18374,0.329644 -1.59536,-0.08197 z m 59.16647,-0.05679 c -0.72977,-0.806384 -0.32163,-1.80341 0.73825,-1.80341 0.72937,0 1.10351,0.374142 1.10351,1.103508 0,1.077013 -1.11651,1.501303 -1.84176,0.699902 z m -48.0368,-8.769858 c -2.91399,-0.509818 -4.17633,-0.967123 -5.92203,-2.145354 -1.43215,-0.966604 -2.38143,-2.079867 -3.2539,-3.816003 -0.89466,-1.780285 -1.24075,-2.909533 -1.28003,-4.176568 -0.0243,-0.78376 0.0345,-0.891094 0.52438,-0.956671 0.30347,-0.04062 0.64611,-0.164769 0.76142,-0.275877 0.11532,-0.111105 1.02813,-0.202012 2.02847,-0.202012 1.00034,0 1.87924,-0.0978 1.95311,-0.217325 0.17485,-0.282915 1.13543,-0.203063 1.16556,0.09689 0.0128,0.126932 0.18782,0.695757 0.38904,1.264055 0.27641,0.780641 0.4551,1.004883 0.73088,0.917163 0.30248,-0.09621 0.31037,-0.07738 0.0461,0.109905 -0.2747,0.19463 -0.26304,0.329905 0.084,0.974272 0.22163,0.411542 0.76243,0.988699 1.20179,1.282572 0.43935,0.293873 0.84848,0.586505 0.90917,0.650292 0.26863,0.282329 2.33248,0.66013 3.58957,0.657093 1.93215,-0.0047 3.84135,-0.741028 4.5143,-1.74113 1.04091,-1.546946 1.19583,-2.426941 0.62247,-3.535704 -0.38612,-0.746669 -1.97635,-1.616043 -3.6502,-1.995553 -0.66762,-0.151368 -1.38631,-0.363939 -1.59709,-0.47238 -0.21078,-0.108442 -0.67667,-0.197166 -1.03531,-0.197166 -0.35864,0 -0.71346,-0.09932 -0.78848,-0.220702 -0.075,-0.121386 -0.32708,-0.220702 -0.56013,-0.220702 -0.65103,0 -3.73465,-1.084726 -4.84706,-1.705047 -1.28454,-0.716316 -2.6377,-1.673448 -2.6437,-1.869983 -0.003,-0.08479 -0.24942,-0.418196 -0.54851,-0.740915 -0.29908,-0.322716 -0.79566,-1.092201 -1.1035,-1.709965 -0.49132,-0.98594 -0.55972,-1.403817 -0.55972,-3.419325 0,-2.215103 0.0306,-2.360521 0.86723,-4.121481 0.7698,-1.620287 0.99915,-1.906703 2.04149,-2.549353 3.42807,-2.113574 4.16198,-2.309733 8.56776,-2.290014 1.88148,0.0084 3.8678,0.111918 4.41403,0.229994 1.53345,0.331467 3.74679,1.522686 4.9717,2.675769 1.11852,1.05291 2.53216,3.449685 2.53216,4.293142 0,0.248568 0.11865,0.847927 0.26365,1.331912 0.40541,1.35317 0.0754,1.488606 -3.62783,1.488606 h -3.05913 l -0.23081,-0.662105 c -0.12695,-0.364157 -0.32627,-0.662104 -0.44295,-0.662104 -0.11667,0 -0.15202,-0.09726 -0.0786,-0.21614 0.37288,-0.603341 -1.39829,-2.430926 -2.3567,-2.431761 -0.32665,-2.2e-4 -0.65529,-0.09983 -0.73031,-0.22122 -0.17275,-0.279519 -3.07752,-0.290309 -3.58939,-0.01333 -0.21078,0.114054 -0.6487,0.262996 -0.97315,0.330986 -0.32446,0.06799 -0.89553,0.380765 -1.26904,0.695055 -0.59221,0.498316 -0.67911,0.713158 -0.67911,1.678939 0,0.876474 0.0667,1.081901 0.31981,0.984779 0.20536,-0.07881 0.27911,-0.01664 0.20607,0.173695 -0.1909,0.497454 2.54123,1.688453 4.6606,2.031673 0.36416,0.05897 0.86074,0.190028 1.10351,0.291233 0.24277,0.101205 1.28559,0.408243 2.31737,0.682305 1.03178,0.274063 2.51682,0.783286 3.30008,1.131606 0.78327,0.34832 1.54792,0.58581 1.69921,0.527755 0.15195,-0.05831 0.22875,0.01512 0.17159,0.164094 -0.0569,0.148307 0.18255,0.438598 0.53209,0.64509 0.34957,0.206493 1.00031,0.779165 1.44611,1.272608 0.44579,0.493442 0.8979,0.843173 1.0047,0.777178 0.10677,-0.06599 0.1687,0.05326 0.13763,0.265008 -0.0311,0.211748 0.12443,0.783287 0.34557,1.270087 0.22114,0.486797 0.40428,1.188001 0.40693,1.558228 0.003,0.370227 0.11353,0.781807 0.24635,0.914623 0.26208,0.26208 0.16764,2.218675 -0.17943,3.717365 -0.57617,2.488079 -2.68718,5.218639 -4.83094,6.248781 -0.59384,0.285356 -1.25217,0.608132 -1.46295,0.71728 -0.21078,0.109148 -0.61301,0.198451 -0.89384,0.198451 -0.28084,0 -0.60861,0.098 -0.72839,0.217779 -0.22501,0.225006 -6.17498,0.490849 -7.15365,0.319627 z m 56.83066,-0.07752 c -2.61644,-0.323641 -5.12608,-1.81384 -6.5966,-3.916989 -0.43831,-0.626859 -0.79691,-1.247582 -0.79691,-1.379385 0,-0.131806 -0.0993,-0.239645 -0.2207,-0.239645 -0.12138,0 -0.2207,-0.158384 -0.2207,-0.351966 0,-0.193582 -0.20404,-1.023706 -0.45341,-1.844719 -0.38879,-1.279965 -0.44078,-1.929783 -0.36486,-4.558644 0.0487,-1.686239 0.1627,-3.363839 0.25334,-3.727996 0.34871,-1.401038 1.57658,-3.527655 2.86413,-4.960529 1.57442,-1.752147 2.92134,-2.47521 5.42536,-2.912473 2.40088,-0.419253 4.71257,-0.159174 6.45252,0.72595 0.21079,0.107223 0.57596,0.194952 0.81154,0.194952 0.49269,0 3.65972,3.053539 3.87698,3.738071 0.0795,0.250393 0.25367,0.455259 0.38711,0.455259 0.13343,0 0.17605,0.06656 0.0947,0.147908 -0.0814,0.08135 -0.017,0.354468 0.14284,0.606929 0.1599,0.252463 0.41554,1.054916 0.56806,1.783231 0.15253,0.728315 0.36966,1.683338 0.48248,2.122271 0.33836,1.316196 0.25681,3.643155 -0.14165,4.041609 -0.30104,0.301028 -1.29172,0.346817 -7.50385,0.346817 -7.80737,0 -7.44546,-0.06597 -6.90534,1.25865 0.89881,2.204235 1.02832,2.362962 2.55345,3.129668 1.92395,0.967203 3.95476,0.301244 4.89294,-1.604543 l 0.52529,-1.067061 1.24032,0.133061 c 3.74943,0.402233 5.1026,0.753279 5.1026,1.323733 0,0.173423 -0.35838,0.945578 -0.7964,1.7159 -0.43803,0.770323 -0.81993,1.549561 -0.84869,1.73164 -0.0287,0.182079 -0.14211,0.332167 -0.25191,0.333531 -0.10982,0.0013 -0.7459,0.408143 -1.41353,0.90396 -1.75777,1.305424 -3.25627,1.809874 -5.73824,1.931697 -1.15316,0.0566 -2.69256,0.0292 -3.42087,-0.06089 z m 6.28666,-14.529608 c -0.008,-0.951105 -1.52635,-3.869027 -1.95219,-3.752086 -0.0776,0.02132 -0.38943,-0.09844 -0.6929,-0.266125 -0.30346,-0.167686 -0.57702,-0.28632 -0.60792,-0.263634 -0.0309,0.02269 -0.31165,-0.02287 -0.62392,-0.101249 -0.31227,-0.07838 -0.78358,-0.03332 -1.04734,0.100125 -0.26378,0.133443 -0.62856,0.270276 -0.81064,0.30407 -0.62238,0.115517 -2.13736,1.86691 -2.27609,2.631268 -0.0739,0.407387 -0.19956,0.964162 -0.27912,1.23728 l -0.1447,0.496578 h 4.21909 c 3.8723,0 4.2188,-0.03175 4.21573,-0.386227 z M 137.16986,70.167615 c -3.93252,-0.855324 -6.44518,-3.294039 -7.61746,-7.393269 -0.51338,-1.795198 -0.5538,-5.877213 -0.0782,-7.894505 0.99112,-4.203661 4.20784,-7.383622 8.12617,-8.033295 2.6659,-0.442014 5.65302,0.122624 7.76984,1.46869 2.99515,1.904579 4.45632,4.978999 4.85173,10.208448 l 0.13767,1.820788 h -7.51902 -7.51902 v 0.526411 c 0,1.900283 1.6074,4.234085 3.25652,4.728174 2.31898,0.694782 4.13027,-0.112154 5.01735,-2.23525 0.25701,-0.6151 0.44991,-0.806532 0.72782,-0.722262 0.20797,0.06306 1.5068,0.311711 2.88629,0.552547 1.37949,0.240836 2.55374,0.48346 2.60945,0.539165 0.23546,0.235462 -1.14877,2.659472 -2.13477,3.738307 -2.28783,2.503251 -6.47018,3.575668 -10.51439,2.696051 z m 6.97979,-14.029093 c 0,-2.896726 -2.71434,-5.317509 -5.2091,-4.64574 -1.93817,0.521896 -3.17715,1.989773 -3.51281,4.161781 l -0.14495,0.937982 h 4.43343 c 4.32737,0 4.43343,-0.01086 4.43343,-0.454023 z m 16.4118,14.028526 c -3.81311,-0.829247 -6.51408,-3.460786 -7.71292,-7.514635 -0.28644,-0.968569 -0.38679,-2.070294 -0.3811,-4.183904 0.007,-2.51642 0.0802,-3.082539 0.59711,-4.605224 1.13111,-3.331777 3.33359,-5.577462 6.53422,-6.662385 0.91791,-0.311143 1.85958,-0.411498 3.86228,-0.411602 4.11102,-2.18e-4 6.39021,0.960783 8.31332,3.505247 0.74851,0.990358 1.85194,3.379114 1.65285,3.578195 -0.0469,0.04688 -1.36949,0.313977 -2.93915,0.593544 l -2.85391,0.508307 -0.59541,-1.267317 c -0.48636,-1.035213 -0.77011,-1.351891 -1.54931,-1.729092 -1.83418,-0.887915 -4.26101,-0.419922 -5.50813,1.062197 -0.89108,1.058989 -1.26534,2.631891 -1.26534,5.317779 0,3.776707 0.7961,5.670936 2.78878,6.635576 1.12268,0.543482 3.00655,0.530975 4.15508,-0.02759 0.80736,-0.392639 1.6119,-1.554847 1.94947,-2.816097 0.24058,-0.898869 0.29316,-0.946803 0.92256,-0.841069 5.21354,0.875843 5.19182,0.870454 5.19182,1.287577 0,0.225299 -0.25142,1.006965 -0.5587,1.737037 -0.30728,0.730072 -0.49057,1.437634 -0.4073,1.572362 0.0873,0.141271 0.0515,0.183233 -0.0846,0.09913 -0.12994,-0.0803 -0.45083,0.201849 -0.71417,0.627951 -1.82995,2.960919 -6.8604,4.520703 -11.39749,3.534008 z M 63.593571,66.27035 c -2.00287,-2.072816 -5.19482,-5.371411 -7.09323,-7.330211 -3.58061,-3.694509 -3.88009,-4.006908 -9.9008,-10.327936 -2.00286,-2.102774 -4.28713,-4.474213 -5.07613,-5.269866 -0.78901,-0.795654 -2.47295,-2.53457 -3.74209,-3.864261 -2.77794,-2.910484 -8.52958,-8.865609 -21.48891,-22.249148 -2.9619,-3.058861 -3.90162,-4.106441 -3.90162,-4.349466 0,-0.244671 0.81297,-0.280921 0.91959,-0.04101 0.0894,0.201186 1.45388,1.254137 2.92158,2.254572 0.59532,0.40579 1.00206,0.607821 0.90388,0.44896 -0.0982,-0.158862 0.21245,0.102126 0.6903,0.579972 0.84869,0.848695 2.81828,2.289211 3.12999,2.289211 0.0861,0 0.2806,0.198631 0.43221,0.441403 0.15161,0.242772 0.41552,0.441403 0.58645,0.441403 0.17094,0 0.3439,0.07472 0.38436,0.166038 0.11709,0.26427 3.02165,2.482381 3.25061,2.482381 0.11388,0 0.24015,0.07449 0.28062,0.165527 0.12289,0.276521 1.90737,1.600086 2.15729,1.600086 0.1285,0 0.23782,0.07449 0.24293,0.165526 0.005,0.09104 0.55848,0.562789 1.22971,1.048333 0.67123,0.485543 1.50074,1.106266 1.84336,1.379385 0.34261,0.273118 0.7824,0.496578 0.9773,0.496578 0.19491,0 0.32954,0.09152 0.2992,0.203382 -0.0303,0.11186 0.49106,0.605465 1.15868,1.096899 0.66762,0.491434 1.31317,0.971862 1.43456,1.067615 0.12139,0.09576 0.96557,0.718569 1.87596,1.384031 1.95321,1.427714 1.79163,1.307054 3.25286,2.429062 0.6359,0.488278 1.20662,0.861528 1.26827,0.829445 0.0617,-0.03208 0.40857,0.221496 0.77093,0.56351 0.70451,0.664946 3.24529,2.578329 3.42375,2.578329 0.0984,0 0.6753,0.443668 1.29557,0.996309 0.13819,0.12312 0.99612,0.761436 1.90651,1.418482 1.6451,1.18729 3.76615,2.753048 4.40897,3.254698 0.18486,0.144266 1.08098,0.808854 1.99138,1.476865 0.91039,0.66801 2.16299,1.617619 2.78356,2.110242 0.62057,0.492622 1.24129,0.895676 1.37939,0.895676 0.13809,0 0.25108,0.101445 0.25108,0.225433 0,0.123988 0.27176,0.347448 0.6039,0.496579 0.33215,0.14913 0.76205,0.420118 0.95533,0.602197 0.73529,0.692668 1.52472,1.308529 2.64032,2.059821 l 1.15466,0.777594 0.85412,-0.56523 c 0.46977,-0.310876 0.85412,-0.629933 0.85412,-0.709017 0,-0.07908 0.27312,-0.306347 0.60693,-0.505029 0.33381,-0.198685 0.95453,-0.677843 1.37938,-1.064802 0.42485,-0.386956 1.14489,-0.942265 1.60009,-1.234022 0.4552,-0.291756 0.82763,-0.607121 0.82763,-0.700813 0,-0.09369 0.29891,-0.346917 0.66424,-0.562725 0.36533,-0.215807 1.48264,-1.058867 2.4829,-1.873463 1.00026,-0.814599 2.4642,-1.970797 3.25321,-2.569329 0.78901,-0.598533 1.58353,-1.246507 1.76561,-1.439941 0.18208,-0.193434 0.67866,-0.592357 1.10351,-0.886499 1.23974,-0.858327 6.50345,-5.118988 6.58609,-5.331049 0.0415,-0.106412 0.4139,-0.334911 0.82763,-0.507777 0.98726,-0.412505 1.01183,-0.889474 0.035,-0.678492 -0.3945,0.0852 -2.00838,0.244321 -3.5864,0.353592 -2.81634,0.195023 -6.10294,0.465968 -10.70403,0.882434 -1.27455,0.115365 -3.53398,0.308933 -5.02096,0.430152 -10.89157,0.887882 -12.98313,1.062656 -15.94569,1.33245 -4.41647,0.4022 -5.25304,0.420507 -5.50211,0.120397 -0.12444,-0.149944 -0.72996,-1.256028 -1.34561,-2.457962 -1.03552,-2.021684 -1.09058,-2.206372 -0.7352,-2.466228 0.21127,-0.154489 0.68793,-0.289505 1.05923,-0.300039 0.37131,-0.01053 1.9662,-0.116564 3.54422,-0.235626 1.57802,-0.119062 4.20988,-0.301182 5.84859,-0.404713 1.63871,-0.103534 4.56853,-0.298996 6.5107,-0.434365 1.94217,-0.135368 4.9713,-0.34667 6.7314,-0.469558 1.76009,-0.122889 4.68991,-0.315701 6.5107,-0.428466 4.73235,-0.293091 9.14744,-0.585989 13.46279,-0.893127 2.06356,-0.146871 4.79317,-0.277867 6.0658,-0.291103 2.69747,-0.02805 2.93272,0.178964 1.78527,1.571018 -0.37304,0.452571 -0.67826,0.933806 -0.67826,1.069416 0,0.135608 -0.19864,0.426319 -0.44141,0.646025 -0.24277,0.219706 -0.4414,0.494433 -0.4414,0.610507 0,0.116071 -0.37608,0.671745 -0.83572,1.234827 -0.45965,0.563083 -1.37525,1.818312 -2.03467,2.789399 -0.65941,0.971087 -1.57025,2.258106 -2.02408,2.860043 -0.45383,0.601937 -0.78031,1.139264 -0.72551,1.194062 0.0548,0.0548 -0.0735,0.221273 -0.28519,0.369944 -0.21165,0.148671 -0.88048,1.001764 -1.48628,1.89576 -0.6058,0.893996 -1.17805,1.724763 -1.27167,1.846149 -0.40985,0.531414 -1.42353,1.921876 -1.93056,2.648125 -0.303461,0.434674 -0.873561,1.208456 -1.266891,1.719515 -0.39333,0.511059 -0.716099,1.012727 -0.717279,1.114816 -0.001,0.10209 -0.34975,0.591715 -0.7746,1.088057 -0.42485,0.496342 -0.77245,1.033539 -0.77245,1.193768 0,0.16023 -0.0827,0.291326 -0.18367,0.291326 -0.15614,0 -2.56118,3.257088 -3.23721,4.384077 -0.12138,0.202359 -0.49382,0.723349 -0.82763,1.157754 -0.33381,0.434407 -0.60693,0.893974 -0.60693,1.021261 0,0.127287 -0.16319,0.294054 -0.36264,0.370591 -0.19945,0.07654 -0.30693,0.194873 -0.23883,0.262966 0.0681,0.06809 -0.0418,0.322392 -0.24429,0.565102 -0.20245,0.242712 -0.59144,0.706069 -0.86441,1.029681 -0.27297,0.323613 -0.49643,0.712531 -0.49657,0.864263 -1.5e-4,0.151733 -0.0863,0.275877 -0.19147,0.275877 -0.10516,0 -0.9141,1.067644 -1.79764,2.372542 -0.88355,1.304903 -1.79066,2.577579 -2.01582,2.828175 -0.22516,0.250595 -0.40938,0.522579 -0.40938,0.604406 0,0.146705 -0.49494,0.794299 -1.0641,1.392312 -0.1604,0.168534 -0.23963,0.306424 -0.17606,0.306424 0.0636,0 -0.11453,0.248289 -0.39577,0.551754 -0.28125,0.303465 -0.54962,0.548101 -0.59639,0.543637 -0.0468,-0.0045 -1.72376,-1.704059 -3.72662,-3.776875 z m 172.962269,3.643657 c -0.0841,-0.08411 -0.15292,-5.18609 -0.15292,-11.337725 0,-10.386795 0.0276,-11.206938 0.38623,-11.495207 0.30461,-0.24482 0.99252,-0.287027 3.25535,-0.199733 l 2.86912,0.110684 v 11.476483 11.476482 l -3.10243,0.06097 c -1.70631,0.03354 -3.17121,-0.0079 -3.25535,-0.09196 z m 8.38305,-0.0036 c -0.0821,-0.08212 -0.14931,-1.132446 -0.14931,-2.334054 0,-1.929856 0.18713,-2.882546 0.64021,-3.25923 0.18789,-0.156209 2.73452,-3.092133 3.24147,-3.736966 0.23211,-0.295237 1.06755,-1.254002 1.85656,-2.130589 4.64699,-5.162804 5.10313,-5.750996 4.60346,-5.936332 -0.16486,-0.06116 -2.33575,-0.136658 -4.82416,-0.167775 l -4.52438,-0.05657 -0.0629,-2.395821 c -0.0414,-1.577302 0.0244,-2.500973 0.19254,-2.703595 0.34847,-0.419858 18.49877,-0.461048 18.91689,-0.04293 0.16806,0.168056 0.26484,1.015673 0.26484,2.319375 0,2.003134 -0.0172,2.07243 -0.69177,2.769805 -0.38049,0.393401 -1.27738,1.410482 -1.99311,2.260183 -1.42375,1.69023 -3.08552,3.58991 -4.5431,5.193486 -0.51589,0.567563 -0.93798,1.086189 -0.93798,1.152501 0,0.06631 -0.32278,0.455235 -0.71728,0.86427 -1.66299,1.724246 -2.1697,2.397269 -1.88459,2.503197 0.15647,0.05814 2.71774,0.131004 5.69169,0.161916 l 5.40719,0.0562 v 2.758764 2.758769 l -10.16849,0.05735 c -5.59267,0.03155 -10.23568,-0.0098 -10.3178,-0.09196 z M 115.67914,56.923598 V 44.012555 h -4.52438 -4.52438 v -2.648419 -2.648418 h 12.35929 12.35929 v 2.648418 2.648419 h -4.52439 -4.52438 V 56.923598 69.83464 h -3.31052 -3.31053 z m 60.91365,-2.648419 V 38.715718 h 3.08982 3.08982 v 5.520078 5.520078 l 1.16134,-0.945927 c 1.89722,-1.545306 3.21669,-2.01286 5.68041,-2.01286 2.4509,0 3.96813,0.516985 5.37108,1.830146 2.07561,1.942767 2.35348,3.579561 2.35348,13.863291 v 7.344116 h -3.08983 -3.08982 v -7.490828 c 0,-4.119956 -0.086,-7.543977 -0.1911,-7.608939 -0.10511,-0.06496 -0.14466,-0.361083 -0.0879,-0.658054 0.07,-0.366186 -0.0461,-0.667762 -0.36065,-0.937122 -0.25513,-0.218448 -0.46387,-0.521529 -0.46387,-0.673513 0,-0.503446 -1.3787,-1.038849 -2.64842,-1.02848 -2.26095,0.01847 -3.88322,1.350107 -4.39779,3.60993 -0.12767,0.560679 -0.2285,3.996471 -0.23154,7.890082 l -0.005,6.896924 h -3.08982 -3.08982 z m 80.90987,6.547481 c -0.0625,-0.101157 0.0266,-0.18392 0.19796,-0.18392 0.1714,0 0.2605,0.08276 0.19797,0.18392 -0.0625,0.101154 -0.1516,0.183917 -0.19797,0.183917 -0.0464,0 -0.13544,-0.08276 -0.19796,-0.183917 z M 236.55262,44.294388 c -0.0574,-0.09431 -0.11829,-1.372861 -0.13529,-2.841213 -0.024,-2.070775 0.0397,-2.728316 0.28376,-2.930871 0.21648,-0.179663 1.2348,-0.241876 3.2636,-0.199391 l 2.94893,0.06175 v 2.979471 2.979471 l -3.12829,0.06113 c -1.72057,0.03362 -3.17528,-0.01604 -3.23271,-0.110351 z"
     id="path223"
     inkscape:connector-curvature="0" /></svg>