<?xml version="1.0" encoding="UTF-8" standalone="no"?>
<svg
   xmlns:dc="http://purl.org/dc/elements/1.1/"
   xmlns:cc="http://creativecommons.org/ns#"
   xmlns:rdf="http://www.w3.org/1999/02/22-rdf-syntax-ns#"
   xmlns:svg="http://www.w3.org/2000/svg"
   xmlns="http://www.w3.org/2000/svg"
   xmlns:sodipodi="http://sodipodi.sourceforge.net/DTD/sodipodi-0.dtd"
   xmlns:inkscape="http://www.inkscape.org/namespaces/inkscape"
   version="1.1"
   xml:space="preserve"
   height="62"
   width="62"
   enable-background="new 0 0 196.6 72"
   y="0px"
   x="0px"
   viewBox="0 0 62.000002 62"
   id="svg2"
   inkscape:version="0.92.2 5c3e80d, 2017-08-06"
   sodipodi:docname="notification-icon.svg"
   inkscape:export-filename="/home/leonidas/nextcloud_src/techsize/android/src/main/res/drawable-xxxhdpi/notification_icon.png"
   inkscape:export-xdpi="148.64516"
   inkscape:export-ydpi="148.64516"><metadata
     id="metadata10"><rdf:RDF><cc:Work
         rdf:about=""><dc:format>image/svg+xml</dc:format><dc:type
           rdf:resource="http://purl.org/dc/dcmitype/StillImage" /><dc:title></dc:title></cc:Work></rdf:RDF></metadata><defs
     id="defs8" /><sodipodi:namedview
     pagecolor="#ffffff"
     bordercolor="#666666"
     borderopacity="1"
     objecttolerance="10"
     gridtolerance="10"
     guidetolerance="10"
     inkscape:pageopacity="0"
     inkscape:pageshadow="2"
     inkscape:window-width="1920"
     inkscape:window-height="1033"
     id="namedview6"
     showgrid="false"
     inkscape:zoom="3.4705883"
     inkscape:cx="-22.199229"
     inkscape:cy="-27.99362"
     inkscape:window-x="0"
     inkscape:window-y="22"
     inkscape:window-maximized="1"
     inkscape:current-layer="svg2"
     inkscape:pagecheckerboard="true" /><g
     id="g3793"
     transform="matrix(1.8016369,0,0,1.8016369,-51.634871,48.994244)"><g
       transform="translate(0.71186441,-0.20338984)"
       id="g3857"><path
         style="fill:#ffffff;stroke-width:0.06119698"
         d="m 38.554333,5.3525513 c -2.4229,-3.515458 -5.375009,-7.861731 -5.354105,-7.882635 0.01433,-0.01433 1.428463,1.402804 3.142512,3.149193 1.714049,1.746389 3.166768,3.194468 3.228263,3.217955 0.07747,0.02959 1.45873,-0.573497 4.497978,-1.963914 2.412393,-1.103637 6.809569,-3.114461 9.771503,-4.468496 4.059061,-1.855583 5.385334,-2.487476 5.385334,-2.565808 0,-0.07645 -0.854049,-0.522675 -3.230785,-1.688017 l -3.230785,-1.584093 -2.521731,0.639285 c -1.386952,0.351606 -5.164748,1.304159 -8.3951,2.116785 -3.230355,0.812626 -5.894718,1.490695 -5.920809,1.50682 -0.02609,0.01613 -0.04744,0.06273 -0.04744,0.103566 0,0.09417 3.621615,3.712742 3.715861,3.712742 0.03846,0 3.021779,-0.868656 6.629594,-1.930346 3.607815,-1.06169 6.586547,-1.921384 6.619403,-1.910433 0.05509,0.01836 -13.340361,5.651691 -13.530621,5.690176 -0.07805,0.01579 -1.084942,-1.047665 -4.443987,-4.693637 -0.706825,-0.767202 -1.293746,-1.430968 -1.30427,-1.475036 -0.01156,-0.04839 0.07328,-0.10415 0.21419,-0.140787 0.394262,-0.102507 9.442874,-2.410507 13.360075,-3.40771 2.036329,-0.51839 4.102675,-1.044524 4.591878,-1.169189 l 0.889462,-0.226662 4.583303,2.170839 c 2.520817,1.193962 4.591568,2.197386 4.60167,2.229831 0.0101,0.03244 -2.218564,1.159911 -4.95259,2.50548 -5.01203,2.466703 -15.525098,7.650488 -16.926828,8.346284 -0.416254,0.206621 -0.793217,0.375675 -0.837696,0.375675 -0.04448,0 -0.284905,-0.29604 -0.534281,-0.657868 z m -5.333124,-12.086402 c -0.01585,-0.07573 -0.0584,-1.514625 -0.09454,-3.197542 -0.03615,-1.6829163 -0.105831,-4.6157813 -0.154858,-6.5174773 -0.108672,-4.215331 -0.107719,-4.039 -0.02183,-4.039 0.0382,0 0.307946,0.177568 0.599427,0.394595 l 0.529966,0.394595 0.07389,2.343969 c 0.04064,1.289184 0.116344,3.775979 0.168227,5.526212 0.05188,1.750234 0.109242,3.3818983 0.127462,3.6259213 0.03275,0.438653 0.03509,0.443678 0.206626,0.443678 0.09542,0 0.774657,-0.125099 1.509405,-0.277999 0.734747,-0.1529 1.859138,-0.385371 2.498647,-0.516603 0.639508,-0.131232 2.04398,-0.420513 3.121046,-0.642845 2.97467,-0.614043 5.864675,-1.2091533 8.167742,-1.6819003 2.663399,-0.546712 2.822095,-0.584322 2.885103,-0.683757 0.02889,-0.0456 0.05281,-0.468445 0.05316,-0.939661 3.68e-4,-0.471217 0.03122,-3.110631 0.06862,-5.865364 0.04757,-3.503771 0.04865,-5.027947 0.0036,-5.072979 -0.06288,-0.06288 -0.477858,-0.03597 -3.528623,0.228839 -0.538533,0.04675 -1.488616,0.128019 -2.111295,0.180607 -0.62268,0.05259 -1.765533,0.150531 -2.539675,0.21765 -0.774142,0.06712 -1.737994,0.148924 -2.141894,0.181788 -2.533553,0.206146 -5.167321,0.432895 -5.324138,0.45837 -0.100975,0.0164 -0.379048,0.0342 -0.61794,0.03956 l -0.434348,0.0097 -0.659862,-0.496801 c -0.40044,-0.301486 -0.626657,-0.508688 -0.575401,-0.527036 0.04645,-0.01663 1.062083,-0.100714 2.256954,-0.186854 1.194871,-0.08614 2.709497,-0.19624 3.365834,-0.244666 0.656338,-0.04843 1.592652,-0.115913 2.080698,-0.14997 0.488045,-0.03406 1.438128,-0.10299 2.111295,-0.153182 0.673167,-0.05019 2.380563,-0.174999 3.794213,-0.277348 1.41365,-0.102348 3.117516,-0.226916 3.786369,-0.276817 0.668853,-0.0499 1.327224,-0.09073 1.463049,-0.09073 h 0.246953 l -0.04387,6.808164 c -0.02413,3.744489 -0.06428,6.828844 -0.08924,6.85412 -0.04397,0.04454 -0.950417,0.234485 -7.229773,1.5149793 -1.632429,0.332887 -4.05583,0.828164 -5.385334,1.100616 -1.329504,0.272452 -2.678899,0.548016 -2.998653,0.612364 -0.319754,0.06435 -1.595833,0.324778 -2.835732,0.578733 -1.239898,0.253956 -2.265188,0.461737 -2.278421,0.461737 -0.01323,0 -0.03703,-0.06196 -0.05288,-0.137693 z m -2.075388,-2.833822 c -0.02217,-0.334687 -0.06732,-1.0491403 -0.10033,-1.5876733 -0.03301,-0.538533 -0.115946,-1.887927 -0.184302,-2.998652 -0.06836,-1.110725 -0.151742,-2.473887 -0.185304,-3.02925 -0.03356,-0.555362 -0.102303,-1.670677 -0.152759,-2.478477 -0.157763,-2.525784 -0.176882,-3.090447 -0.104641,-3.090447 0.03631,0 0.302153,0.141126 0.590762,0.313613 l 0.524744,0.313614 -0.03207,1.139814 c -0.04081,1.450369 -0.137909,6.238424 -0.190031,9.370808 -0.04122,2.4774743 -0.09424,3.1308763 -0.166066,2.0466503 z m 10.78656,-3.4388673 c -2.654569,-2.755019 -3.36639,-3.493461 -5.47184,-5.676474 -4.230798,-4.386661 -6.208531,-6.447264 -6.429824,-6.699245 -0.326442,-0.37171 -0.323236,-0.369507 2.368416,1.627496 1.257683,0.933106 2.741084,2.031323 3.296446,2.440483 0.555363,0.40916 1.753294,1.293746 2.662069,1.965747 0.908775,0.672001 2.023769,1.496065 2.477763,1.831253 0.453995,0.335188 1.223662,0.905473 1.71037,1.2673 0.486709,0.361827 0.936241,0.657867 0.998961,0.657867 0.06272,0 0.477216,-0.287839 0.921101,-0.639643 0.443885,-0.351804 1.935867,-1.529577 3.315515,-2.617274 1.379648,-1.087697 2.517635,-2.025327 2.528862,-2.083622 0.01667,-0.08657 -0.02543,-0.105991 -0.229762,-0.105991 -0.221292,0 -3.403216,0.255902 -5.327725,0.428477 -2.503189,0.224465 -5.965597,0.491256 -6.034141,0.464953 -0.07842,-0.03009 -0.575134,-0.953901 -0.575134,-1.069654 0,-0.07354 0.330909,-0.106441 2.539676,-0.252544 2.317214,-0.153275 3.040887,-0.201907 6.395084,-0.429755 4.32133,-0.293545 4.48644,-0.302411 4.712167,-0.25302 0.182253,0.03988 0.211182,0.06921 0.194015,0.196723 -0.025,0.185682 -0.361346,0.731598 -1.016095,1.649184 -0.51836,0.726444 -3.995193,5.613944 -5.071693,7.129447 -1.474441,2.075726 -1.722984,2.41728 -1.759011,2.41728 -0.02103,0 -1.013377,-1.012045 -2.20522,-2.248988 z"
         id="path3799"
         inkscape:connector-curvature="0"
         sodipodi:nodetypes="csscsssscsscsssccsccsccscsssccccssscsccsssssccsccccscccscscccscscscsscsscccsccssccccccsscssscsssscsscssscccsss" /></g></g></svg>